ISO-10303-21;
HEADER;
/* Generated by software containing ST-Developer
 * from STEP Tools, Inc. (www.steptools.com) 
 */
/* OPTION: using custom renumber hook */

FILE_DESCRIPTION(
/* description */ ('STEP AP242 Edition 2',
'CAx-IF Rec.Pracs.---Representation and Presentation of Product Manufa
cturing Information (PMI)---4.0---2014-10-13',
'CAx-IF Rec.Pracs.---3D Tessellated Geometry---0.4---2014-09-14','2;1',
'CAx-IF Rec.Pracs.---User Defined Attributes---1.5---2016-08-15'),
/* implementation_level */ '2;1');

FILE_NAME(
/* name */ 'BatteryCase-AABatteryBox - ComponentGuard',
/* time_stamp */ '2026-09-18T14:38:05Z',
/* author */ (''),
/* organization */ (''),
/* preprocessor_version */ 'ST-DEVELOPER v20',
/* originating_system */ 'ONSHAPE BY PTC INC, 1.220',
/* authorisation */ '  ');

FILE_SCHEMA (('AP242_MANAGED_MODEL_BASED_3D_ENGINEERING_MIM_LF { 1 0 10303 442 3 1 4 }'));
ENDSEC;

DATA;
#10=SHAPE_REPRESENTATION_RELATIONSHIP('','',#873,#11);
#11=ADVANCED_BREP_SHAPE_REPRESENTATION('',(#871),#1367);
#12=ORIENTED_EDGE('',*,*,#248,.F.);
#13=ORIENTED_EDGE('',*,*,#249,.T.);
#14=ORIENTED_EDGE('',*,*,#250,.T.);
#15=ORIENTED_EDGE('',*,*,#251,.F.);
#16=ORIENTED_EDGE('',*,*,#252,.T.);
#17=ORIENTED_EDGE('',*,*,#253,.T.);
#18=ORIENTED_EDGE('',*,*,#254,.T.);
#19=ORIENTED_EDGE('',*,*,#255,.T.);
#20=ORIENTED_EDGE('',*,*,#256,.T.);
#21=ORIENTED_EDGE('',*,*,#257,.T.);
#22=ORIENTED_EDGE('',*,*,#258,.F.);
#23=ORIENTED_EDGE('',*,*,#259,.F.);
#24=ORIENTED_EDGE('',*,*,#249,.F.);
#25=ORIENTED_EDGE('',*,*,#260,.T.);
#26=ORIENTED_EDGE('',*,*,#261,.T.);
#27=ORIENTED_EDGE('',*,*,#262,.T.);
#28=ORIENTED_EDGE('',*,*,#263,.T.);
#29=ORIENTED_EDGE('',*,*,#264,.T.);
#30=ORIENTED_EDGE('',*,*,#265,.F.);
#31=ORIENTED_EDGE('',*,*,#266,.T.);
#32=ORIENTED_EDGE('',*,*,#267,.T.);
#33=ORIENTED_EDGE('',*,*,#268,.T.);
#34=ORIENTED_EDGE('',*,*,#269,.T.);
#35=ORIENTED_EDGE('',*,*,#270,.F.);
#36=ORIENTED_EDGE('',*,*,#271,.T.);
#37=ORIENTED_EDGE('',*,*,#272,.T.);
#38=ORIENTED_EDGE('',*,*,#273,.F.);
#39=ORIENTED_EDGE('',*,*,#274,.T.);
#40=ORIENTED_EDGE('',*,*,#275,.T.);
#41=ORIENTED_EDGE('',*,*,#276,.T.);
#42=ORIENTED_EDGE('',*,*,#277,.T.);
#43=ORIENTED_EDGE('',*,*,#278,.T.);
#44=ORIENTED_EDGE('',*,*,#279,.F.);
#45=ORIENTED_EDGE('',*,*,#280,.T.);
#46=ORIENTED_EDGE('',*,*,#281,.T.);
#47=ORIENTED_EDGE('',*,*,#282,.F.);
#48=ORIENTED_EDGE('',*,*,#283,.F.);
#49=ORIENTED_EDGE('',*,*,#284,.T.);
#50=ORIENTED_EDGE('',*,*,#285,.T.);
#51=ORIENTED_EDGE('',*,*,#261,.F.);
#52=ORIENTED_EDGE('',*,*,#286,.F.);
#53=ORIENTED_EDGE('',*,*,#287,.T.);
#54=ORIENTED_EDGE('',*,*,#288,.T.);
#55=ORIENTED_EDGE('',*,*,#271,.F.);
#56=ORIENTED_EDGE('',*,*,#289,.T.);
#57=ORIENTED_EDGE('',*,*,#290,.T.);
#58=ORIENTED_EDGE('',*,*,#268,.F.);
#59=ORIENTED_EDGE('',*,*,#291,.F.);
#60=ORIENTED_EDGE('',*,*,#292,.F.);
#61=ORIENTED_EDGE('',*,*,#251,.T.);
#62=ORIENTED_EDGE('',*,*,#293,.T.);
#63=ORIENTED_EDGE('',*,*,#287,.F.);
#64=ORIENTED_EDGE('',*,*,#294,.T.);
#65=ORIENTED_EDGE('',*,*,#295,.F.);
#66=ORIENTED_EDGE('',*,*,#289,.F.);
#67=ORIENTED_EDGE('',*,*,#296,.T.);
#68=ORIENTED_EDGE('',*,*,#297,.T.);
#69=ORIENTED_EDGE('',*,*,#298,.T.);
#70=ORIENTED_EDGE('',*,*,#299,.T.);
#71=ORIENTED_EDGE('',*,*,#300,.F.);
#72=ORIENTED_EDGE('',*,*,#301,.F.);
#73=ORIENTED_EDGE('',*,*,#299,.F.);
#74=ORIENTED_EDGE('',*,*,#302,.T.);
#75=ORIENTED_EDGE('',*,*,#303,.T.);
#76=ORIENTED_EDGE('',*,*,#304,.F.);
#77=ORIENTED_EDGE('',*,*,#253,.F.);
#78=ORIENTED_EDGE('',*,*,#305,.T.);
#79=ORIENTED_EDGE('',*,*,#306,.T.);
#80=ORIENTED_EDGE('',*,*,#303,.F.);
#81=ORIENTED_EDGE('',*,*,#307,.T.);
#82=ORIENTED_EDGE('',*,*,#308,.F.);
#83=ORIENTED_EDGE('',*,*,#282,.T.);
#84=ORIENTED_EDGE('',*,*,#284,.F.);
#85=ORIENTED_EDGE('',*,*,#309,.F.);
#86=ORIENTED_EDGE('',*,*,#310,.T.);
#87=ORIENTED_EDGE('',*,*,#311,.T.);
#88=ORIENTED_EDGE('',*,*,#265,.T.);
#89=ORIENTED_EDGE('',*,*,#312,.T.);
#90=ORIENTED_EDGE('',*,*,#310,.F.);
#91=ORIENTED_EDGE('',*,*,#313,.T.);
#92=ORIENTED_EDGE('',*,*,#314,.T.);
#93=ORIENTED_EDGE('',*,*,#315,.T.);
#94=ORIENTED_EDGE('',*,*,#316,.T.);
#95=ORIENTED_EDGE('',*,*,#317,.T.);
#96=ORIENTED_EDGE('',*,*,#318,.T.);
#97=ORIENTED_EDGE('',*,*,#319,.T.);
#98=ORIENTED_EDGE('',*,*,#320,.T.);
#99=ORIENTED_EDGE('',*,*,#321,.T.);
#100=ORIENTED_EDGE('',*,*,#322,.T.);
#101=ORIENTED_EDGE('',*,*,#323,.T.);
#102=ORIENTED_EDGE('',*,*,#263,.F.);
#103=ORIENTED_EDGE('',*,*,#324,.T.);
#104=ORIENTED_EDGE('',*,*,#273,.T.);
#105=ORIENTED_EDGE('',*,*,#325,.T.);
#106=ORIENTED_EDGE('',*,*,#326,.T.);
#107=ORIENTED_EDGE('',*,*,#327,.T.);
#108=ORIENTED_EDGE('',*,*,#328,.T.);
#109=ORIENTED_EDGE('',*,*,#329,.T.);
#110=ORIENTED_EDGE('',*,*,#330,.T.);
#111=ORIENTED_EDGE('',*,*,#331,.T.);
#112=ORIENTED_EDGE('',*,*,#332,.T.);
#113=ORIENTED_EDGE('',*,*,#333,.T.);
#114=ORIENTED_EDGE('',*,*,#334,.T.);
#115=ORIENTED_EDGE('',*,*,#335,.T.);
#116=ORIENTED_EDGE('',*,*,#274,.F.);
#117=ORIENTED_EDGE('',*,*,#327,.F.);
#118=ORIENTED_EDGE('',*,*,#336,.F.);
#119=ORIENTED_EDGE('',*,*,#250,.F.);
#120=ORIENTED_EDGE('',*,*,#336,.T.);
#121=ORIENTED_EDGE('',*,*,#326,.F.);
#122=ORIENTED_EDGE('',*,*,#337,.F.);
#123=ORIENTED_EDGE('',*,*,#293,.F.);
#124=ORIENTED_EDGE('',*,*,#337,.T.);
#125=ORIENTED_EDGE('',*,*,#325,.F.);
#126=ORIENTED_EDGE('',*,*,#272,.F.);
#127=ORIENTED_EDGE('',*,*,#288,.F.);
#128=ORIENTED_EDGE('',*,*,#262,.F.);
#129=ORIENTED_EDGE('',*,*,#285,.F.);
#130=ORIENTED_EDGE('',*,*,#338,.F.);
#131=ORIENTED_EDGE('',*,*,#324,.F.);
#132=ORIENTED_EDGE('',*,*,#338,.T.);
#133=ORIENTED_EDGE('',*,*,#311,.F.);
#134=ORIENTED_EDGE('',*,*,#339,.F.);
#135=ORIENTED_EDGE('',*,*,#322,.F.);
#136=ORIENTED_EDGE('',*,*,#339,.T.);
#137=ORIENTED_EDGE('',*,*,#312,.F.);
#138=ORIENTED_EDGE('',*,*,#264,.F.);
#139=ORIENTED_EDGE('',*,*,#323,.F.);
#140=ORIENTED_EDGE('',*,*,#340,.F.);
#141=ORIENTED_EDGE('',*,*,#319,.F.);
#142=ORIENTED_EDGE('',*,*,#341,.F.);
#143=ORIENTED_EDGE('',*,*,#331,.F.);
#144=ORIENTED_EDGE('',*,*,#341,.T.);
#145=ORIENTED_EDGE('',*,*,#318,.F.);
#146=ORIENTED_EDGE('',*,*,#342,.F.);
#147=ORIENTED_EDGE('',*,*,#332,.F.);
#148=ORIENTED_EDGE('',*,*,#340,.T.);
#149=ORIENTED_EDGE('',*,*,#330,.F.);
#150=ORIENTED_EDGE('',*,*,#343,.F.);
#151=ORIENTED_EDGE('',*,*,#320,.F.);
#152=ORIENTED_EDGE('',*,*,#342,.T.);
#153=ORIENTED_EDGE('',*,*,#317,.F.);
#154=ORIENTED_EDGE('',*,*,#344,.F.);
#155=ORIENTED_EDGE('',*,*,#333,.F.);
#156=ORIENTED_EDGE('',*,*,#343,.T.);
#157=ORIENTED_EDGE('',*,*,#329,.F.);
#158=ORIENTED_EDGE('',*,*,#345,.F.);
#159=ORIENTED_EDGE('',*,*,#321,.F.);
#160=ORIENTED_EDGE('',*,*,#344,.T.);
#161=ORIENTED_EDGE('',*,*,#316,.F.);
#162=ORIENTED_EDGE('',*,*,#346,.F.);
#163=ORIENTED_EDGE('',*,*,#334,.F.);
#164=ORIENTED_EDGE('',*,*,#345,.T.);
#165=ORIENTED_EDGE('',*,*,#328,.F.);
#166=ORIENTED_EDGE('',*,*,#347,.F.);
#167=ORIENTED_EDGE('',*,*,#314,.F.);
#168=ORIENTED_EDGE('',*,*,#346,.T.);
#169=ORIENTED_EDGE('',*,*,#315,.F.);
#170=ORIENTED_EDGE('',*,*,#347,.T.);
#171=ORIENTED_EDGE('',*,*,#335,.F.);
#172=ORIENTED_EDGE('',*,*,#290,.F.);
#173=ORIENTED_EDGE('',*,*,#295,.T.);
#174=ORIENTED_EDGE('',*,*,#348,.T.);
#175=ORIENTED_EDGE('',*,*,#269,.F.);
#176=ORIENTED_EDGE('',*,*,#294,.F.);
#177=ORIENTED_EDGE('',*,*,#286,.T.);
#178=ORIENTED_EDGE('',*,*,#270,.T.);
#179=ORIENTED_EDGE('',*,*,#348,.F.);
#180=ORIENTED_EDGE('',*,*,#252,.F.);
#181=ORIENTED_EDGE('',*,*,#292,.T.);
#182=ORIENTED_EDGE('',*,*,#349,.T.);
#183=ORIENTED_EDGE('',*,*,#305,.F.);
#184=ORIENTED_EDGE('',*,*,#349,.F.);
#185=ORIENTED_EDGE('',*,*,#300,.T.);
#186=ORIENTED_EDGE('',*,*,#301,.T.);
#187=ORIENTED_EDGE('',*,*,#306,.F.);
#188=ORIENTED_EDGE('',*,*,#298,.F.);
#189=ORIENTED_EDGE('',*,*,#350,.T.);
#190=ORIENTED_EDGE('',*,*,#307,.F.);
#191=ORIENTED_EDGE('',*,*,#302,.F.);
#192=ORIENTED_EDGE('',*,*,#296,.F.);
#193=ORIENTED_EDGE('',*,*,#291,.T.);
#194=ORIENTED_EDGE('',*,*,#267,.F.);
#195=ORIENTED_EDGE('',*,*,#351,.F.);
#196=ORIENTED_EDGE('',*,*,#309,.T.);
#197=ORIENTED_EDGE('',*,*,#283,.T.);
#198=ORIENTED_EDGE('',*,*,#308,.T.);
#199=ORIENTED_EDGE('',*,*,#350,.F.);
#200=ORIENTED_EDGE('',*,*,#297,.F.);
#201=ORIENTED_EDGE('',*,*,#351,.T.);
#202=ORIENTED_EDGE('',*,*,#266,.F.);
#203=ORIENTED_EDGE('',*,*,#313,.F.);
#204=ORIENTED_EDGE('',*,*,#352,.T.);
#205=ORIENTED_EDGE('',*,*,#280,.F.);
#206=ORIENTED_EDGE('',*,*,#353,.F.);
#207=ORIENTED_EDGE('',*,*,#255,.F.);
#208=ORIENTED_EDGE('',*,*,#248,.T.);
#209=ORIENTED_EDGE('',*,*,#353,.T.);
#210=ORIENTED_EDGE('',*,*,#279,.T.);
#211=ORIENTED_EDGE('',*,*,#260,.F.);
#212=ORIENTED_EDGE('',*,*,#304,.T.);
#213=ORIENTED_EDGE('',*,*,#281,.F.);
#214=ORIENTED_EDGE('',*,*,#352,.F.);
#215=ORIENTED_EDGE('',*,*,#254,.F.);
#216=ORIENTED_EDGE('',*,*,#354,.T.);
#217=ORIENTED_EDGE('',*,*,#355,.T.);
#218=ORIENTED_EDGE('',*,*,#356,.F.);
#219=ORIENTED_EDGE('',*,*,#257,.F.);
#220=ORIENTED_EDGE('',*,*,#356,.T.);
#221=ORIENTED_EDGE('',*,*,#357,.T.);
#222=ORIENTED_EDGE('',*,*,#358,.F.);
#223=ORIENTED_EDGE('',*,*,#258,.T.);
#224=ORIENTED_EDGE('',*,*,#358,.T.);
#225=ORIENTED_EDGE('',*,*,#359,.T.);
#226=ORIENTED_EDGE('',*,*,#360,.F.);
#227=ORIENTED_EDGE('',*,*,#259,.T.);
#228=ORIENTED_EDGE('',*,*,#360,.T.);
#229=ORIENTED_EDGE('',*,*,#361,.T.);
#230=ORIENTED_EDGE('',*,*,#354,.F.);
#231=ORIENTED_EDGE('',*,*,#256,.F.);
#232=ORIENTED_EDGE('',*,*,#362,.F.);
#233=ORIENTED_EDGE('',*,*,#278,.F.);
#234=ORIENTED_EDGE('',*,*,#363,.F.);
#235=ORIENTED_EDGE('',*,*,#355,.F.);
#236=ORIENTED_EDGE('',*,*,#363,.T.);
#237=ORIENTED_EDGE('',*,*,#277,.F.);
#238=ORIENTED_EDGE('',*,*,#364,.F.);
#239=ORIENTED_EDGE('',*,*,#357,.F.);
#240=ORIENTED_EDGE('',*,*,#362,.T.);
#241=ORIENTED_EDGE('',*,*,#361,.F.);
#242=ORIENTED_EDGE('',*,*,#365,.F.);
#243=ORIENTED_EDGE('',*,*,#275,.F.);
#244=ORIENTED_EDGE('',*,*,#364,.T.);
#245=ORIENTED_EDGE('',*,*,#276,.F.);
#246=ORIENTED_EDGE('',*,*,#365,.T.);
#247=ORIENTED_EDGE('',*,*,#359,.F.);
#248=EDGE_CURVE('',#366,#367,#442,.T.);
#249=EDGE_CURVE('',#366,#368,#443,.T.);
#250=EDGE_CURVE('',#368,#369,#444,.T.);
#251=EDGE_CURVE('',#370,#369,#445,.T.);
#252=EDGE_CURVE('',#370,#371,#446,.T.);
#253=EDGE_CURVE('',#371,#372,#447,.T.);
#254=EDGE_CURVE('',#372,#373,#448,.T.);
#255=EDGE_CURVE('',#373,#367,#449,.T.);
#256=EDGE_CURVE('',#374,#375,#450,.T.);
#257=EDGE_CURVE('',#375,#376,#451,.T.);
#258=EDGE_CURVE('',#377,#376,#452,.T.);
#259=EDGE_CURVE('',#374,#377,#453,.T.);
#260=EDGE_CURVE('',#366,#378,#454,.T.);
#261=EDGE_CURVE('',#378,#379,#455,.T.);
#262=EDGE_CURVE('',#379,#380,#456,.T.);
#263=EDGE_CURVE('',#380,#381,#457,.T.);
#264=EDGE_CURVE('',#381,#382,#458,.F.);
#265=EDGE_CURVE('',#383,#382,#459,.T.);
#266=EDGE_CURVE('',#383,#384,#460,.T.);
#267=EDGE_CURVE('',#384,#385,#461,.T.);
#268=EDGE_CURVE('',#385,#386,#462,.T.);
#269=EDGE_CURVE('',#386,#387,#463,.T.);
#270=EDGE_CURVE('',#388,#387,#464,.T.);
#271=EDGE_CURVE('',#388,#389,#465,.T.);
#272=EDGE_CURVE('',#389,#390,#466,.F.);
#273=EDGE_CURVE('',#391,#390,#467,.T.);
#274=EDGE_CURVE('',#391,#368,#468,.T.);
#275=EDGE_CURVE('',#392,#393,#469,.T.);
#276=EDGE_CURVE('',#393,#394,#470,.T.);
#277=EDGE_CURVE('',#394,#395,#471,.T.);
#278=EDGE_CURVE('',#395,#392,#472,.T.);
#279=EDGE_CURVE('',#396,#378,#473,.T.);
#280=EDGE_CURVE('',#396,#397,#474,.T.);
#281=EDGE_CURVE('',#397,#398,#475,.T.);
#282=EDGE_CURVE('',#399,#398,#476,.T.);
#283=EDGE_CURVE('',#400,#399,#477,.T.);
#284=EDGE_CURVE('',#400,#401,#478,.T.);
#285=EDGE_CURVE('',#401,#379,#479,.T.);
#286=EDGE_CURVE('',#402,#388,#480,.T.);
#287=EDGE_CURVE('',#402,#403,#481,.T.);
#288=EDGE_CURVE('',#403,#389,#482,.T.);
#289=EDGE_CURVE('',#404,#405,#483,.T.);
#290=EDGE_CURVE('',#405,#386,#484,.T.);
#291=EDGE_CURVE('',#404,#385,#485,.T.);
#292=EDGE_CURVE('',#370,#406,#486,.T.);
#293=EDGE_CURVE('',#369,#403,#487,.T.);
#294=EDGE_CURVE('',#402,#407,#488,.T.);
#295=EDGE_CURVE('',#405,#407,#489,.T.);
#296=EDGE_CURVE('',#404,#408,#490,.T.);
#297=EDGE_CURVE('',#408,#409,#491,.T.);
#298=EDGE_CURVE('',#409,#410,#492,.T.);
#299=EDGE_CURVE('',#410,#411,#493,.T.);
#300=EDGE_CURVE('',#406,#411,#494,.T.);
#301=EDGE_CURVE('',#411,#412,#495,.T.);
#302=EDGE_CURVE('',#410,#413,#496,.T.);
#303=EDGE_CURVE('',#413,#412,#497,.T.);
#304=EDGE_CURVE('',#372,#398,#498,.T.);
#305=EDGE_CURVE('',#371,#414,#499,.T.);
#306=EDGE_CURVE('',#414,#412,#500,.T.);
#307=EDGE_CURVE('',#413,#415,#501,.T.);
#308=EDGE_CURVE('',#399,#415,#502,.T.);
#309=EDGE_CURVE('',#416,#400,#503,.T.);
#310=EDGE_CURVE('',#416,#417,#504,.T.);
#311=EDGE_CURVE('',#417,#401,#505,.T.);
#312=EDGE_CURVE('',#382,#417,#506,.T.);
#313=EDGE_CURVE('',#416,#383,#507,.T.);
#314=EDGE_CURVE('',#418,#419,#508,.T.);
#315=EDGE_CURVE('',#419,#420,#509,.T.);
#316=EDGE_CURVE('',#420,#421,#510,.T.);
#317=EDGE_CURVE('',#421,#422,#511,.T.);
#318=EDGE_CURVE('',#422,#423,#512,.T.);
#319=EDGE_CURVE('',#423,#424,#513,.T.);
#320=EDGE_CURVE('',#424,#425,#514,.T.);
#321=EDGE_CURVE('',#425,#418,#515,.T.);
#322=EDGE_CURVE('',#426,#427,#516,.T.);
#323=EDGE_CURVE('',#427,#381,#517,.T.);
#324=EDGE_CURVE('',#380,#426,#518,.T.);
#325=EDGE_CURVE('',#390,#428,#519,.T.);
#326=EDGE_CURVE('',#428,#429,#520,.T.);
#327=EDGE_CURVE('',#429,#391,#521,.T.);
#328=EDGE_CURVE('',#430,#431,#522,.T.);
#329=EDGE_CURVE('',#431,#432,#523,.T.);
#330=EDGE_CURVE('',#432,#433,#524,.T.);
#331=EDGE_CURVE('',#433,#434,#525,.T.);
#332=EDGE_CURVE('',#434,#435,#526,.T.);
#333=EDGE_CURVE('',#435,#436,#527,.T.);
#334=EDGE_CURVE('',#436,#437,#528,.T.);
#335=EDGE_CURVE('',#437,#430,#529,.T.);
#336=EDGE_CURVE('',#369,#429,#530,.F.);
#337=EDGE_CURVE('',#403,#428,#531,.T.);
#338=EDGE_CURVE('',#426,#401,#532,.F.);
#339=EDGE_CURVE('',#427,#417,#533,.T.);
#340=EDGE_CURVE('',#424,#433,#534,.T.);
#341=EDGE_CURVE('',#434,#423,#535,.F.);
#342=EDGE_CURVE('',#435,#422,#536,.F.);
#343=EDGE_CURVE('',#425,#432,#537,.T.);
#344=EDGE_CURVE('',#436,#421,#538,.F.);
#345=EDGE_CURVE('',#418,#431,#539,.T.);
#346=EDGE_CURVE('',#437,#420,#540,.F.);
#347=EDGE_CURVE('',#419,#430,#541,.F.);
#348=EDGE_CURVE('',#407,#387,#542,.T.);
#349=EDGE_CURVE('',#406,#414,#543,.T.);
#350=EDGE_CURVE('',#409,#415,#544,.T.);
#351=EDGE_CURVE('',#408,#384,#545,.T.);
#352=EDGE_CURVE('',#373,#397,#546,.T.);
#353=EDGE_CURVE('',#367,#396,#547,.T.);
#354=EDGE_CURVE('',#375,#438,#548,.T.);
#355=EDGE_CURVE('',#438,#439,#549,.T.);
#356=EDGE_CURVE('',#376,#439,#550,.T.);
#357=EDGE_CURVE('',#439,#440,#551,.T.);
#358=EDGE_CURVE('',#377,#440,#552,.T.);
#359=EDGE_CURVE('',#440,#441,#553,.T.);
#360=EDGE_CURVE('',#374,#441,#554,.T.);
#361=EDGE_CURVE('',#441,#438,#555,.T.);
#362=EDGE_CURVE('',#392,#438,#556,.T.);
#363=EDGE_CURVE('',#439,#395,#557,.T.);
#364=EDGE_CURVE('',#440,#394,#558,.F.);
#365=EDGE_CURVE('',#393,#441,#559,.T.);
#366=VERTEX_POINT('',#1130);
#367=VERTEX_POINT('',#1131);
#368=VERTEX_POINT('',#1133);
#369=VERTEX_POINT('',#1135);
#370=VERTEX_POINT('',#1137);
#371=VERTEX_POINT('',#1139);
#372=VERTEX_POINT('',#1141);
#373=VERTEX_POINT('',#1143);
#374=VERTEX_POINT('',#1146);
#375=VERTEX_POINT('',#1147);
#376=VERTEX_POINT('',#1149);
#377=VERTEX_POINT('',#1151);
#378=VERTEX_POINT('',#1155);
#379=VERTEX_POINT('',#1157);
#380=VERTEX_POINT('',#1159);
#381=VERTEX_POINT('',#1161);
#382=VERTEX_POINT('',#1163);
#383=VERTEX_POINT('',#1165);
#384=VERTEX_POINT('',#1167);
#385=VERTEX_POINT('',#1169);
#386=VERTEX_POINT('',#1171);
#387=VERTEX_POINT('',#1173);
#388=VERTEX_POINT('',#1175);
#389=VERTEX_POINT('',#1177);
#390=VERTEX_POINT('',#1179);
#391=VERTEX_POINT('',#1181);
#392=VERTEX_POINT('',#1185);
#393=VERTEX_POINT('',#1186);
#394=VERTEX_POINT('',#1188);
#395=VERTEX_POINT('',#1190);
#396=VERTEX_POINT('',#1193);
#397=VERTEX_POINT('',#1195);
#398=VERTEX_POINT('',#1197);
#399=VERTEX_POINT('',#1199);
#400=VERTEX_POINT('',#1201);
#401=VERTEX_POINT('',#1203);
#402=VERTEX_POINT('',#1207);
#403=VERTEX_POINT('',#1209);
#404=VERTEX_POINT('',#1213);
#405=VERTEX_POINT('',#1214);
#406=VERTEX_POINT('',#1219);
#407=VERTEX_POINT('',#1222);
#408=VERTEX_POINT('',#1225);
#409=VERTEX_POINT('',#1227);
#410=VERTEX_POINT('',#1229);
#411=VERTEX_POINT('',#1231);
#412=VERTEX_POINT('',#1235);
#413=VERTEX_POINT('',#1237);
#414=VERTEX_POINT('',#1242);
#415=VERTEX_POINT('',#1245);
#416=VERTEX_POINT('',#1249);
#417=VERTEX_POINT('',#1251);
#418=VERTEX_POINT('',#1258);
#419=VERTEX_POINT('',#1259);
#420=VERTEX_POINT('',#1261);
#421=VERTEX_POINT('',#1263);
#422=VERTEX_POINT('',#1265);
#423=VERTEX_POINT('',#1267);
#424=VERTEX_POINT('',#1269);
#425=VERTEX_POINT('',#1271);
#426=VERTEX_POINT('',#1274);
#427=VERTEX_POINT('',#1275);
#428=VERTEX_POINT('',#1280);
#429=VERTEX_POINT('',#1282);
#430=VERTEX_POINT('',#1285);
#431=VERTEX_POINT('',#1286);
#432=VERTEX_POINT('',#1288);
#433=VERTEX_POINT('',#1290);
#434=VERTEX_POINT('',#1292);
#435=VERTEX_POINT('',#1294);
#436=VERTEX_POINT('',#1296);
#437=VERTEX_POINT('',#1298);
#438=VERTEX_POINT('',#1344);
#439=VERTEX_POINT('',#1346);
#440=VERTEX_POINT('',#1350);
#441=VERTEX_POINT('',#1354);
#442=LINE('',#1129,#560);
#443=LINE('',#1132,#561);
#444=LINE('',#1134,#562);
#445=LINE('',#1136,#563);
#446=LINE('',#1138,#564);
#447=LINE('',#1140,#565);
#448=LINE('',#1142,#566);
#449=LINE('',#1144,#567);
#450=LINE('',#1145,#568);
#451=LINE('',#1148,#569);
#452=LINE('',#1150,#570);
#453=LINE('',#1152,#571);
#454=LINE('',#1154,#572);
#455=LINE('',#1156,#573);
#456=LINE('',#1158,#574);
#457=LINE('',#1160,#575);
#458=LINE('',#1162,#576);
#459=LINE('',#1164,#577);
#460=LINE('',#1166,#578);
#461=LINE('',#1168,#579);
#462=LINE('',#1170,#580);
#463=LINE('',#1172,#581);
#464=LINE('',#1174,#582);
#465=LINE('',#1176,#583);
#466=LINE('',#1178,#584);
#467=LINE('',#1180,#585);
#468=LINE('',#1182,#586);
#469=LINE('',#1184,#587);
#470=LINE('',#1187,#588);
#471=LINE('',#1189,#589);
#472=LINE('',#1191,#590);
#473=LINE('',#1192,#591);
#474=LINE('',#1194,#592);
#475=LINE('',#1196,#593);
#476=LINE('',#1198,#594);
#477=LINE('',#1200,#595);
#478=LINE('',#1202,#596);
#479=LINE('',#1204,#597);
#480=LINE('',#1206,#598);
#481=LINE('',#1208,#599);
#482=LINE('',#1210,#600);
#483=LINE('',#1212,#601);
#484=LINE('',#1215,#602);
#485=LINE('',#1216,#603);
#486=LINE('',#1218,#604);
#487=LINE('',#1220,#605);
#488=LINE('',#1221,#606);
#489=LINE('',#1223,#607);
#490=LINE('',#1224,#608);
#491=LINE('',#1226,#609);
#492=LINE('',#1228,#610);
#493=LINE('',#1230,#611);
#494=LINE('',#1232,#612);
#495=LINE('',#1234,#613);
#496=LINE('',#1236,#614);
#497=LINE('',#1238,#615);
#498=LINE('',#1240,#616);
#499=LINE('',#1241,#617);
#500=LINE('',#1243,#618);
#501=LINE('',#1244,#619);
#502=LINE('',#1246,#620);
#503=LINE('',#1248,#621);
#504=LINE('',#1250,#622);
#505=LINE('',#1252,#623);
#506=LINE('',#1254,#624);
#507=LINE('',#1255,#625);
#508=LINE('',#1257,#626);
#509=LINE('',#1260,#627);
#510=LINE('',#1262,#628);
#511=LINE('',#1264,#629);
#512=LINE('',#1266,#630);
#513=LINE('',#1268,#631);
#514=LINE('',#1270,#632);
#515=LINE('',#1272,#633);
#516=LINE('',#1273,#634);
#517=LINE('',#1276,#635);
#518=LINE('',#1277,#636);
#519=LINE('',#1279,#637);
#520=LINE('',#1281,#638);
#521=LINE('',#1283,#639);
#522=LINE('',#1284,#640);
#523=LINE('',#1287,#641);
#524=LINE('',#1289,#642);
#525=LINE('',#1291,#643);
#526=LINE('',#1293,#644);
#527=LINE('',#1295,#645);
#528=LINE('',#1297,#646);
#529=LINE('',#1299,#647);
#530=LINE('',#1301,#648);
#531=LINE('',#1303,#649);
#532=LINE('',#1306,#650);
#533=LINE('',#1308,#651);
#534=LINE('',#1311,#652);
#535=LINE('',#1312,#653);
#536=LINE('',#1314,#654);
#537=LINE('',#1316,#655);
#538=LINE('',#1318,#656);
#539=LINE('',#1320,#657);
#540=LINE('',#1322,#658);
#541=LINE('',#1324,#659);
#542=LINE('',#1327,#660);
#543=LINE('',#1330,#661);
#544=LINE('',#1333,#662);
#545=LINE('',#1335,#663);
#546=LINE('',#1338,#664);
#547=LINE('',#1339,#665);
#548=LINE('',#1343,#666);
#549=LINE('',#1345,#667);
#550=LINE('',#1347,#668);
#551=LINE('',#1349,#669);
#552=LINE('',#1351,#670);
#553=LINE('',#1353,#671);
#554=LINE('',#1355,#672);
#555=LINE('',#1357,#673);
#556=LINE('',#1359,#674);
#557=LINE('',#1360,#675);
#558=LINE('',#1362,#676);
#559=LINE('',#1364,#677);
#560=VECTOR('',#923,1.);
#561=VECTOR('',#924,1.);
#562=VECTOR('',#925,1.);
#563=VECTOR('',#926,1.);
#564=VECTOR('',#927,1.);
#565=VECTOR('',#928,1.);
#566=VECTOR('',#929,1.);
#567=VECTOR('',#930,1.);
#568=VECTOR('',#931,1.);
#569=VECTOR('',#932,1.);
#570=VECTOR('',#933,1.);
#571=VECTOR('',#934,1.);
#572=VECTOR('',#937,1.);
#573=VECTOR('',#938,1.);
#574=VECTOR('',#939,1.);
#575=VECTOR('',#940,1.);
#576=VECTOR('',#941,1.);
#577=VECTOR('',#942,1.);
#578=VECTOR('',#943,1.);
#579=VECTOR('',#944,1.);
#580=VECTOR('',#945,1.);
#581=VECTOR('',#946,1.);
#582=VECTOR('',#947,1.);
#583=VECTOR('',#948,1.);
#584=VECTOR('',#949,1.);
#585=VECTOR('',#950,1.);
#586=VECTOR('',#951,1.);
#587=VECTOR('',#954,1.);
#588=VECTOR('',#955,1.);
#589=VECTOR('',#956,1.);
#590=VECTOR('',#957,1.);
#591=VECTOR('',#958,1.);
#592=VECTOR('',#959,1.);
#593=VECTOR('',#960,1.);
#594=VECTOR('',#961,1.);
#595=VECTOR('',#962,1.);
#596=VECTOR('',#963,1.);
#597=VECTOR('',#964,1.);
#598=VECTOR('',#967,1.);
#599=VECTOR('',#968,1.);
#600=VECTOR('',#969,1.);
#601=VECTOR('',#972,1.);
#602=VECTOR('',#973,1.);
#603=VECTOR('',#974,1.);
#604=VECTOR('',#977,1.);
#605=VECTOR('',#978,1.);
#606=VECTOR('',#979,1.);
#607=VECTOR('',#980,1.);
#608=VECTOR('',#981,1.);
#609=VECTOR('',#982,1.);
#610=VECTOR('',#983,1.);
#611=VECTOR('',#984,1.);
#612=VECTOR('',#985,1.);
#613=VECTOR('',#988,1.);
#614=VECTOR('',#989,1.);
#615=VECTOR('',#990,1.);
#616=VECTOR('',#993,1.);
#617=VECTOR('',#994,1.);
#618=VECTOR('',#995,1.);
#619=VECTOR('',#996,1.);
#620=VECTOR('',#997,1.);
#621=VECTOR('',#1000,1.);
#622=VECTOR('',#1001,1.);
#623=VECTOR('',#1002,1.);
#624=VECTOR('',#1005,1.);
#625=VECTOR('',#1006,1.);
#626=VECTOR('',#1009,1.);
#627=VECTOR('',#1010,1.);
#628=VECTOR('',#1011,1.);
#629=VECTOR('',#1012,1.);
#630=VECTOR('',#1013,1.);
#631=VECTOR('',#1014,1.);
#632=VECTOR('',#1015,1.);
#633=VECTOR('',#1016,1.);
#634=VECTOR('',#1017,1.);
#635=VECTOR('',#1018,1.);
#636=VECTOR('',#1019,1.);
#637=VECTOR('',#1022,1.);
#638=VECTOR('',#1023,1.);
#639=VECTOR('',#1024,1.);
#640=VECTOR('',#1025,1.);
#641=VECTOR('',#1026,1.);
#642=VECTOR('',#1027,1.);
#643=VECTOR('',#1028,1.);
#644=VECTOR('',#1029,1.);
#645=VECTOR('',#1030,1.);
#646=VECTOR('',#1031,1.);
#647=VECTOR('',#1032,1.);
#648=VECTOR('',#1035,1.);
#649=VECTOR('',#1038,1.);
#650=VECTOR('',#1043,1.);
#651=VECTOR('',#1046,1.);
#652=VECTOR('',#1051,1.);
#653=VECTOR('',#1052,1.);
#654=VECTOR('',#1055,1.);
#655=VECTOR('',#1058,1.);
#656=VECTOR('',#1061,1.);
#657=VECTOR('',#1064,1.);
#658=VECTOR('',#1067,1.);
#659=VECTOR('',#1070,1.);
#660=VECTOR('',#1075,1.);
#661=VECTOR('',#1080,1.);
#662=VECTOR('',#1085,1.);
#663=VECTOR('',#1088,1.);
#664=VECTOR('',#1093,1.);
#665=VECTOR('',#1094,1.);
#666=VECTOR('',#1101,1.);
#667=VECTOR('',#1102,1.);
#668=VECTOR('',#1103,1.);
#669=VECTOR('',#1106,1.);
#670=VECTOR('',#1107,1.);
#671=VECTOR('',#1110,1.);
#672=VECTOR('',#1111,1.);
#673=VECTOR('',#1114,1.);
#674=VECTOR('',#1117,1.);
#675=VECTOR('',#1118,1.);
#676=VECTOR('',#1121,1.);
#677=VECTOR('',#1124,1.);
#678=EDGE_LOOP('',(#12,#13,#14,#15,#16,#17,#18,#19));
#679=EDGE_LOOP('',(#20,#21,#22,#23));
#680=EDGE_LOOP('',(#24,#25,#26,#27,#28,#29,#30,#31,#32,#33,#34,#35,#36,
#37,#38,#39));
#681=EDGE_LOOP('',(#40,#41,#42,#43));
#682=EDGE_LOOP('',(#44,#45,#46,#47,#48,#49,#50,#51));
#683=EDGE_LOOP('',(#52,#53,#54,#55));
#684=EDGE_LOOP('',(#56,#57,#58,#59));
#685=EDGE_LOOP('',(#60,#61,#62,#63,#64,#65,#66,#67,#68,#69,#70,#71));
#686=EDGE_LOOP('',(#72,#73,#74,#75));
#687=EDGE_LOOP('',(#76,#77,#78,#79,#80,#81,#82,#83));
#688=EDGE_LOOP('',(#84,#85,#86,#87));
#689=EDGE_LOOP('',(#88,#89,#90,#91));
#690=EDGE_LOOP('',(#92,#93,#94,#95,#96,#97,#98,#99));
#691=EDGE_LOOP('',(#100,#101,#102,#103));
#692=EDGE_LOOP('',(#104,#105,#106,#107));
#693=EDGE_LOOP('',(#108,#109,#110,#111,#112,#113,#114,#115));
#694=EDGE_LOOP('',(#116,#117,#118,#119));
#695=EDGE_LOOP('',(#120,#121,#122,#123));
#696=EDGE_LOOP('',(#124,#125,#126,#127));
#697=EDGE_LOOP('',(#128,#129,#130,#131));
#698=EDGE_LOOP('',(#132,#133,#134,#135));
#699=EDGE_LOOP('',(#136,#137,#138,#139));
#700=EDGE_LOOP('',(#140,#141,#142,#143));
#701=EDGE_LOOP('',(#144,#145,#146,#147));
#702=EDGE_LOOP('',(#148,#149,#150,#151));
#703=EDGE_LOOP('',(#152,#153,#154,#155));
#704=EDGE_LOOP('',(#156,#157,#158,#159));
#705=EDGE_LOOP('',(#160,#161,#162,#163));
#706=EDGE_LOOP('',(#164,#165,#166,#167));
#707=EDGE_LOOP('',(#168,#169,#170,#171));
#708=EDGE_LOOP('',(#172,#173,#174,#175));
#709=EDGE_LOOP('',(#176,#177,#178,#179));
#710=EDGE_LOOP('',(#180,#181,#182,#183));
#711=EDGE_LOOP('',(#184,#185,#186,#187));
#712=EDGE_LOOP('',(#188,#189,#190,#191));
#713=EDGE_LOOP('',(#192,#193,#194,#195));
#714=EDGE_LOOP('',(#196,#197,#198,#199,#200,#201,#202,#203));
#715=EDGE_LOOP('',(#204,#205,#206,#207));
#716=EDGE_LOOP('',(#208,#209,#210,#211));
#717=EDGE_LOOP('',(#212,#213,#214,#215));
#718=EDGE_LOOP('',(#216,#217,#218,#219));
#719=EDGE_LOOP('',(#220,#221,#222,#223));
#720=EDGE_LOOP('',(#224,#225,#226,#227));
#721=EDGE_LOOP('',(#228,#229,#230,#231));
#722=EDGE_LOOP('',(#232,#233,#234,#235));
#723=EDGE_LOOP('',(#236,#237,#238,#239));
#724=EDGE_LOOP('',(#240,#241,#242,#243));
#725=EDGE_LOOP('',(#244,#245,#246,#247));
#726=FACE_BOUND('',#678,.T.);
#727=FACE_BOUND('',#679,.T.);
#728=FACE_BOUND('',#680,.T.);
#729=FACE_BOUND('',#681,.T.);
#730=FACE_BOUND('',#682,.T.);
#731=FACE_BOUND('',#683,.T.);
#732=FACE_BOUND('',#684,.T.);
#733=FACE_BOUND('',#685,.T.);
#734=FACE_BOUND('',#686,.T.);
#735=FACE_BOUND('',#687,.T.);
#736=FACE_BOUND('',#688,.T.);
#737=FACE_BOUND('',#689,.T.);
#738=FACE_BOUND('',#690,.T.);
#739=FACE_BOUND('',#691,.T.);
#740=FACE_BOUND('',#692,.T.);
#741=FACE_BOUND('',#693,.T.);
#742=FACE_BOUND('',#694,.T.);
#743=FACE_BOUND('',#695,.T.);
#744=FACE_BOUND('',#696,.T.);
#745=FACE_BOUND('',#697,.T.);
#746=FACE_BOUND('',#698,.T.);
#747=FACE_BOUND('',#699,.T.);
#748=FACE_BOUND('',#700,.T.);
#749=FACE_BOUND('',#701,.T.);
#750=FACE_BOUND('',#702,.T.);
#751=FACE_BOUND('',#703,.T.);
#752=FACE_BOUND('',#704,.T.);
#753=FACE_BOUND('',#705,.T.);
#754=FACE_BOUND('',#706,.T.);
#755=FACE_BOUND('',#707,.T.);
#756=FACE_BOUND('',#708,.T.);
#757=FACE_BOUND('',#709,.T.);
#758=FACE_BOUND('',#710,.T.);
#759=FACE_BOUND('',#711,.T.);
#760=FACE_BOUND('',#712,.T.);
#761=FACE_BOUND('',#713,.T.);
#762=FACE_BOUND('',#714,.T.);
#763=FACE_BOUND('',#715,.T.);
#764=FACE_BOUND('',#716,.T.);
#765=FACE_BOUND('',#717,.T.);
#766=FACE_BOUND('',#718,.T.);
#767=FACE_BOUND('',#719,.T.);
#768=FACE_BOUND('',#720,.T.);
#769=FACE_BOUND('',#721,.T.);
#770=FACE_BOUND('',#722,.T.);
#771=FACE_BOUND('',#723,.T.);
#772=FACE_BOUND('',#724,.T.);
#773=FACE_BOUND('',#725,.T.);
#774=PLANE('',#875);
#775=PLANE('',#876);
#776=PLANE('',#877);
#777=PLANE('',#878);
#778=PLANE('',#879);
#779=PLANE('',#880);
#780=PLANE('',#881);
#781=PLANE('',#882);
#782=PLANE('',#883);
#783=PLANE('',#884);
#784=PLANE('',#885);
#785=PLANE('',#886);
#786=PLANE('',#887);
#787=PLANE('',#888);
#788=PLANE('',#889);
#789=PLANE('',#890);
#790=PLANE('',#891);
#791=PLANE('',#892);
#792=PLANE('',#893);
#793=PLANE('',#894);
#794=PLANE('',#895);
#795=PLANE('',#896);
#796=PLANE('',#897);
#797=PLANE('',#898);
#798=PLANE('',#899);
#799=PLANE('',#900);
#800=PLANE('',#901);
#801=PLANE('',#902);
#802=PLANE('',#903);
#803=PLANE('',#904);
#804=PLANE('',#905);
#805=PLANE('',#906);
#806=PLANE('',#907);
#807=PLANE('',#908);
#808=PLANE('',#909);
#809=PLANE('',#910);
#810=PLANE('',#911);
#811=PLANE('',#912);
#812=PLANE('',#913);
#813=PLANE('',#914);
#814=PLANE('',#915);
#815=PLANE('',#916);
#816=PLANE('',#917);
#817=PLANE('',#918);
#818=ADVANCED_FACE('',(#726,#727),#774,.T.);
#819=ADVANCED_FACE('',(#728),#775,.T.);
#820=ADVANCED_FACE('',(#729,#730),#776,.F.);
#821=ADVANCED_FACE('',(#731),#777,.F.);
#822=ADVANCED_FACE('',(#732),#778,.F.);
#823=ADVANCED_FACE('',(#733),#779,.T.);
#824=ADVANCED_FACE('',(#734),#780,.T.);
#825=ADVANCED_FACE('',(#735),#781,.T.);
#826=ADVANCED_FACE('',(#736),#782,.F.);
#827=ADVANCED_FACE('',(#737),#783,.T.);
#828=ADVANCED_FACE('',(#738,#739),#784,.T.);
#829=ADVANCED_FACE('',(#740,#741),#785,.F.);
#830=ADVANCED_FACE('',(#742),#786,.F.);
#831=ADVANCED_FACE('',(#743),#787,.F.);
#832=ADVANCED_FACE('',(#744),#788,.T.);
#833=ADVANCED_FACE('',(#745),#789,.T.);
#834=ADVANCED_FACE('',(#746),#790,.T.);
#835=ADVANCED_FACE('',(#747),#791,.F.);
#836=ADVANCED_FACE('',(#748),#792,.F.);
#837=ADVANCED_FACE('',(#749),#793,.F.);
#838=ADVANCED_FACE('',(#750),#794,.F.);
#839=ADVANCED_FACE('',(#751),#795,.F.);
#840=ADVANCED_FACE('',(#752),#796,.F.);
#841=ADVANCED_FACE('',(#753),#797,.F.);
#842=ADVANCED_FACE('',(#754),#798,.F.);
#843=ADVANCED_FACE('',(#755),#799,.F.);
#844=ADVANCED_FACE('',(#756),#800,.T.);
#845=ADVANCED_FACE('',(#757),#801,.F.);
#846=ADVANCED_FACE('',(#758),#802,.T.);
#847=ADVANCED_FACE('',(#759),#803,.T.);
#848=ADVANCED_FACE('',(#760),#804,.T.);
#849=ADVANCED_FACE('',(#761),#805,.T.);
#850=ADVANCED_FACE('',(#762),#806,.T.);
#851=ADVANCED_FACE('',(#763),#807,.T.);
#852=ADVANCED_FACE('',(#764),#808,.F.);
#853=ADVANCED_FACE('',(#765),#809,.T.);
#854=ADVANCED_FACE('',(#766),#810,.T.);
#855=ADVANCED_FACE('',(#767),#811,.F.);
#856=ADVANCED_FACE('',(#768),#812,.F.);
#857=ADVANCED_FACE('',(#769),#813,.T.);
#858=ADVANCED_FACE('',(#770),#814,.T.);
#859=ADVANCED_FACE('',(#771),#815,.F.);
#860=ADVANCED_FACE('',(#772),#816,.T.);
#861=ADVANCED_FACE('',(#773),#817,.F.);
#862=CLOSED_SHELL('',(#818,#819,#820,#821,#822,#823,#824,#825,#826,#827,
#828,#829,#830,#831,#832,#833,#834,#835,#836,#837,#838,#839,#840,#841,#842,
#843,#844,#845,#846,#847,#848,#849,#850,#851,#852,#853,#854,#855,#856,#857,
#858,#859,#860,#861));
#863=STYLED_ITEM('',(#864),#871);
#864=PRESENTATION_STYLE_ASSIGNMENT((#865));
#865=SURFACE_STYLE_USAGE(.BOTH.,#866);
#866=SURFACE_SIDE_STYLE('',(#867));
#867=SURFACE_STYLE_FILL_AREA(#868);
#868=FILL_AREA_STYLE('',(#869));
#869=FILL_AREA_STYLE_COLOUR('',#870);
#870=COLOUR_RGB('',0.917647058823529,0.917647058823529,0.917647058823529);
#871=MANIFOLD_SOLID_BREP('ComponentGuard',#862);
#872=SHAPE_DEFINITION_REPRESENTATION(#1372,#873);
#873=SHAPE_REPRESENTATION('ComponentGuard',(#874),#1367);
#874=AXIS2_PLACEMENT_3D('',#1127,#919,#920);
#875=AXIS2_PLACEMENT_3D('',#1128,#921,#922);
#876=AXIS2_PLACEMENT_3D('',#1153,#935,#936);
#877=AXIS2_PLACEMENT_3D('',#1183,#952,#953);
#878=AXIS2_PLACEMENT_3D('',#1205,#965,#966);
#879=AXIS2_PLACEMENT_3D('',#1211,#970,#971);
#880=AXIS2_PLACEMENT_3D('',#1217,#975,#976);
#881=AXIS2_PLACEMENT_3D('',#1233,#986,#987);
#882=AXIS2_PLACEMENT_3D('',#1239,#991,#992);
#883=AXIS2_PLACEMENT_3D('',#1247,#998,#999);
#884=AXIS2_PLACEMENT_3D('',#1253,#1003,#1004);
#885=AXIS2_PLACEMENT_3D('',#1256,#1007,#1008);
#886=AXIS2_PLACEMENT_3D('',#1278,#1020,#1021);
#887=AXIS2_PLACEMENT_3D('',#1300,#1033,#1034);
#888=AXIS2_PLACEMENT_3D('',#1302,#1036,#1037);
#889=AXIS2_PLACEMENT_3D('',#1304,#1039,#1040);
#890=AXIS2_PLACEMENT_3D('',#1305,#1041,#1042);
#891=AXIS2_PLACEMENT_3D('',#1307,#1044,#1045);
#892=AXIS2_PLACEMENT_3D('',#1309,#1047,#1048);
#893=AXIS2_PLACEMENT_3D('',#1310,#1049,#1050);
#894=AXIS2_PLACEMENT_3D('',#1313,#1053,#1054);
#895=AXIS2_PLACEMENT_3D('',#1315,#1056,#1057);
#896=AXIS2_PLACEMENT_3D('',#1317,#1059,#1060);
#897=AXIS2_PLACEMENT_3D('',#1319,#1062,#1063);
#898=AXIS2_PLACEMENT_3D('',#1321,#1065,#1066);
#899=AXIS2_PLACEMENT_3D('',#1323,#1068,#1069);
#900=AXIS2_PLACEMENT_3D('',#1325,#1071,#1072);
#901=AXIS2_PLACEMENT_3D('',#1326,#1073,#1074);
#902=AXIS2_PLACEMENT_3D('',#1328,#1076,#1077);
#903=AXIS2_PLACEMENT_3D('',#1329,#1078,#1079);
#904=AXIS2_PLACEMENT_3D('',#1331,#1081,#1082);
#905=AXIS2_PLACEMENT_3D('',#1332,#1083,#1084);
#906=AXIS2_PLACEMENT_3D('',#1334,#1086,#1087);
#907=AXIS2_PLACEMENT_3D('',#1336,#1089,#1090);
#908=AXIS2_PLACEMENT_3D('',#1337,#1091,#1092);
#909=AXIS2_PLACEMENT_3D('',#1340,#1095,#1096);
#910=AXIS2_PLACEMENT_3D('',#1341,#1097,#1098);
#911=AXIS2_PLACEMENT_3D('',#1342,#1099,#1100);
#912=AXIS2_PLACEMENT_3D('',#1348,#1104,#1105);
#913=AXIS2_PLACEMENT_3D('',#1352,#1108,#1109);
#914=AXIS2_PLACEMENT_3D('',#1356,#1112,#1113);
#915=AXIS2_PLACEMENT_3D('',#1358,#1115,#1116);
#916=AXIS2_PLACEMENT_3D('',#1361,#1119,#1120);
#917=AXIS2_PLACEMENT_3D('',#1363,#1122,#1123);
#918=AXIS2_PLACEMENT_3D('',#1365,#1125,#1126);
#919=DIRECTION('',(0.,0.,1.));
#920=DIRECTION('',(1.,0.,0.));
#921=DIRECTION('',(-1.26807271635732E-16,-1.,0.));
#922=DIRECTION('',(1.,-1.26807271635732E-16,0.));
#923=DIRECTION('',(1.,-1.26807271635732E-16,0.));
#924=DIRECTION('',(0.,0.,-1.));
#925=DIRECTION('',(1.,-1.26807271635732E-16,0.));
#926=DIRECTION('',(0.,0.,-1.));
#927=DIRECTION('',(-1.,0.,0.));
#928=DIRECTION('',(0.,0.,-1.));
#929=DIRECTION('',(1.,-1.26807271635732E-16,0.));
#930=DIRECTION('',(0.,0.,-1.));
#931=DIRECTION('',(1.,-1.26807271635732E-16,0.));
#932=DIRECTION('',(0.,0.,-1.));
#933=DIRECTION('',(1.,-1.26807271635732E-16,0.));
#934=DIRECTION('',(0.,0.,-1.));
#935=DIRECTION('',(-1.,0.,0.));
#936=DIRECTION('',(0.,0.,1.));
#937=DIRECTION('',(1.19801345026023E-16,1.,0.));
#938=DIRECTION('',(0.,0.,-1.));
#939=DIRECTION('',(0.,-0.707106781186548,-0.707106781186548));
#940=DIRECTION('',(0.,-1.,0.));
#941=DIRECTION('',(0.,0.707106781186548,-0.707106781186548));
#942=DIRECTION('',(0.,0.,-1.));
#943=DIRECTION('',(0.,1.,0.));
#944=DIRECTION('',(0.,-0.707106781186546,-0.70710678118655));
#945=DIRECTION('',(0.,0.,-1.));
#946=DIRECTION('',(0.,1.,0.));
#947=DIRECTION('',(0.,0.707106781187001,0.707106781186095));
#948=DIRECTION('',(0.,0.,-1.));
#949=DIRECTION('',(0.,-0.707106781186548,0.707106781186548));
#950=DIRECTION('',(0.,-1.,0.));
#951=DIRECTION('',(0.,0.707106781186548,0.707106781186548));
#952=DIRECTION('',(-1.19801345026023E-16,-1.,0.));
#953=DIRECTION('',(1.,-1.19801345026023E-16,0.));
#954=DIRECTION('',(-1.,1.19801345026023E-16,0.));
#955=DIRECTION('',(0.,0.,-1.));
#956=DIRECTION('',(1.,-1.19801345026023E-16,0.));
#957=DIRECTION('',(0.,0.,1.));
#958=DIRECTION('',(-1.,1.19801345026023E-16,0.));
#959=DIRECTION('',(0.,0.,1.));
#960=DIRECTION('',(-1.,1.19801345026023E-16,0.));
#961=DIRECTION('',(0.,0.,-1.));
#962=DIRECTION('',(-1.,0.,0.));
#963=DIRECTION('',(0.,0.,-1.));
#964=DIRECTION('',(-1.,1.19801345026023E-16,0.));
#965=DIRECTION('',(0.,-1.,0.));
#966=DIRECTION('',(0.,0.,-1.));
#967=DIRECTION('',(-1.,0.,0.));
#968=DIRECTION('',(0.,0.,-1.));
#969=DIRECTION('',(-1.,0.,0.));
#970=DIRECTION('',(0.,-1.,0.));
#971=DIRECTION('',(0.,0.,-1.));
#972=DIRECTION('',(0.,0.,-1.));
#973=DIRECTION('',(-1.,0.,0.));
#974=DIRECTION('',(-1.,0.,0.));
#975=DIRECTION('',(-1.,0.,0.));
#976=DIRECTION('',(0.,0.,1.));
#977=DIRECTION('',(0.,-0.707106781187607,0.707106781185488));
#978=DIRECTION('',(0.,-1.,0.));
#979=DIRECTION('',(0.,0.707106781187001,0.707106781186095));
#980=DIRECTION('',(0.,1.,0.));
#981=DIRECTION('',(0.,0.707106781186546,0.70710678118655));
#982=DIRECTION('',(0.,1.,0.));
#983=DIRECTION('',(0.,0.707106781186548,-0.707106781186548));
#984=DIRECTION('',(0.,0.,-1.));
#985=DIRECTION('',(0.,1.,0.));
#986=DIRECTION('',(-1.26807271635732E-16,-1.,0.));
#987=DIRECTION('',(1.,-1.26807271635732E-16,0.));
#988=DIRECTION('',(-1.,0.,0.));
#989=DIRECTION('',(-1.,1.26807271635732E-16,0.));
#990=DIRECTION('',(0.,0.,-1.));
#991=DIRECTION('',(-1.,0.,0.));
#992=DIRECTION('',(0.,0.,1.));
#993=DIRECTION('',(1.19801345026023E-16,1.,0.));
#994=DIRECTION('',(0.,-0.707106781187608,0.707106781185488));
#995=DIRECTION('',(0.,1.,0.));
#996=DIRECTION('',(0.,-0.707106781186547,0.707106781186548));
#997=DIRECTION('',(0.,-1.,0.));
#998=DIRECTION('',(-1.,0.,0.));
#999=DIRECTION('',(0.,0.,1.));
#1000=DIRECTION('',(0.,1.,0.));
#1001=DIRECTION('',(0.,0.,-1.));
#1002=DIRECTION('',(0.,1.,0.));
#1003=DIRECTION('',(0.,-1.,0.));
#1004=DIRECTION('',(0.,0.,-1.));
#1005=DIRECTION('',(1.,0.,0.));
#1006=DIRECTION('',(-1.,0.,0.));
#1007=DIRECTION('',(0.,0.,-1.));
#1008=DIRECTION('',(1.,0.,0.));
#1009=DIRECTION('',(-0.3826834323651,-0.923879532511283,0.));
#1010=DIRECTION('',(0.382683432365079,-0.923879532511291,0.));
#1011=DIRECTION('',(0.923879532511283,-0.3826834323651,0.));
#1012=DIRECTION('',(0.923879532511291,0.38268343236508,0.));
#1013=DIRECTION('',(0.382683432365101,0.923879532511282,0.));
#1014=DIRECTION('',(-0.382683432365079,0.923879532511291,0.));
#1015=DIRECTION('',(-0.923879532511282,0.3826834323651,0.));
#1016=DIRECTION('',(-0.923879532511291,-0.382683432365079,0.));
#1017=DIRECTION('',(0.,-1.,0.));
#1018=DIRECTION('',(-1.,0.,0.));
#1019=DIRECTION('',(1.,-1.19801345026023E-16,0.));
#1020=DIRECTION('',(0.,0.,-1.));
#1021=DIRECTION('',(1.,0.,0.));
#1022=DIRECTION('',(1.,0.,0.));
#1023=DIRECTION('',(0.,1.,0.));
#1024=DIRECTION('',(-1.,1.26807271635732E-16,0.));
#1025=DIRECTION('',(0.3826834323651,0.923879532511282,0.));
#1026=DIRECTION('',(0.923879532511291,0.382683432365079,0.));
#1027=DIRECTION('',(0.923879532511282,-0.3826834323651,0.));
#1028=DIRECTION('',(0.382683432365079,-0.923879532511291,0.));
#1029=DIRECTION('',(-0.3826834323651,-0.923879532511282,0.));
#1030=DIRECTION('',(-0.923879532511291,-0.38268343236508,0.));
#1031=DIRECTION('',(-0.923879532511283,0.3826834323651,0.));
#1032=DIRECTION('',(-0.382683432365079,0.923879532511291,0.));
#1033=DIRECTION('',(8.96662816773904E-17,0.707106781186548,-0.707106781186548));
#1034=DIRECTION('',(-1.,1.26807271635732E-16,0.));
#1035=DIRECTION('',(0.577350269189626,0.577350269189626,0.577350269189626));
#1036=DIRECTION('',(0.707106781186548,0.,-0.707106781186548));
#1037=DIRECTION('',(0.,1.,0.));
#1038=DIRECTION('',(-0.577350269189626,0.577350269189626,-0.577350269189626));
#1039=DIRECTION('',(0.,0.707106781186548,0.707106781186548));
#1040=DIRECTION('',(1.,0.,0.));
#1041=DIRECTION('',(8.47123434631699E-17,0.707106781186548,-0.707106781186547));
#1042=DIRECTION('',(1.,-1.19801345026023E-16,0.));
#1043=DIRECTION('',(-0.577350269189626,-0.577350269189626,-0.577350269189626));
#1044=DIRECTION('',(0.707106781186548,0.,-0.707106781186548));
#1045=DIRECTION('',(0.,-1.,0.));
#1046=DIRECTION('',(0.577350269189626,-0.577350269189626,0.577350269189626));
#1047=DIRECTION('',(0.,0.707106781186548,0.707106781186548));
#1048=DIRECTION('',(-1.,0.,0.));
#1049=DIRECTION('',(0.653281482438191,0.27059805007309,0.707106781186548));
#1050=DIRECTION('',(0.382683432365079,-0.923879532511291,0.));
#1051=DIRECTION('',(-0.519376687376153,-0.519376687376138,0.678598344545847));
#1052=DIRECTION('',(-0.734509555267755,1.1720083575714E-15,0.678598344545848));
#1053=DIRECTION('',(0.653281482438187,-0.270598050073107,0.707106781186545));
#1054=DIRECTION('',(-0.382683432365101,-0.923879532511282,0.));
#1055=DIRECTION('',(-0.519376687376142,0.519376687376144,0.678598344545851));
#1056=DIRECTION('',(0.270598050073106,0.653281482438185,0.707106781186548));
#1057=DIRECTION('',(0.923879532511283,-0.3826834323651,0.));
#1058=DIRECTION('',(-1.68343018632983E-14,-0.734509555267754,0.678598344545849));
#1059=DIRECTION('',(0.270598050073093,-0.653281482438196,0.707106781186543));
#1060=DIRECTION('',(-0.923879532511291,-0.38268343236508,0.));
#1061=DIRECTION('',(1.8858679935467E-14,0.734509555267753,0.67859834454585));
#1062=DIRECTION('',(-0.270598050073092,0.653281482438195,0.707106781186544));
#1063=DIRECTION('',(0.923879532511291,0.382683432365079,0.));
#1064=DIRECTION('',(0.519376687376139,-0.519376687376147,0.67859834454585));
#1065=DIRECTION('',(-0.270598050073106,-0.653281482438186,0.707106781186547));
#1066=DIRECTION('',(-0.923879532511283,0.3826834323651,0.));
#1067=DIRECTION('',(0.519376687376154,0.519376687376136,0.678598344545847));
#1068=DIRECTION('',(-0.653281482438187,0.270598050073107,0.707106781186545));
#1069=DIRECTION('',(0.3826834323651,0.923879532511282,0.));
#1070=DIRECTION('',(-0.734509555267755,7.60239099192173E-16,-0.678598344545848));
#1071=DIRECTION('',(-0.653281482438191,-0.27059805007309,0.707106781186548));
#1072=DIRECTION('',(-0.382683432365079,0.923879532511291,0.));
#1073=DIRECTION('',(0.,0.,1.));
#1074=DIRECTION('',(1.,0.,0.));
#1075=DIRECTION('',(-1.,0.,0.));
#1076=DIRECTION('',(0.,-0.707106781186095,0.707106781187001));
#1077=DIRECTION('',(0.,-0.707106781187001,-0.707106781186095));
#1078=DIRECTION('',(0.,-0.707106781185488,-0.707106781187607));
#1079=DIRECTION('',(0.,0.707106781187607,-0.707106781185488));
#1080=DIRECTION('',(-1.,0.,0.));
#1081=DIRECTION('',(0.,0.,1.));
#1082=DIRECTION('',(1.,0.,0.));
#1083=DIRECTION('',(0.,-0.707106781186548,-0.707106781186547));
#1084=DIRECTION('',(0.,0.707106781186548,-0.707106781186548));
#1085=DIRECTION('',(-1.,0.,0.));
#1086=DIRECTION('',(0.,0.70710678118655,-0.707106781186546));
#1087=DIRECTION('',(0.,0.707106781186546,0.70710678118655));
#1088=DIRECTION('',(-1.,0.,0.));
#1089=DIRECTION('',(0.,0.,1.));
#1090=DIRECTION('',(1.,0.,0.));
#1091=DIRECTION('',(-1.,1.19801345026023E-16,0.));
#1092=DIRECTION('',(-1.19801345026023E-16,-1.,0.));
#1093=DIRECTION('',(1.19801345026023E-16,1.,0.));
#1094=DIRECTION('',(1.19801345026023E-16,1.,0.));
#1095=DIRECTION('',(0.,0.,-1.));
#1096=DIRECTION('',(-1.,0.,0.));
#1097=DIRECTION('',(0.,0.,-1.));
#1098=DIRECTION('',(-1.,0.,0.));
#1099=DIRECTION('',(-1.,1.19801345026023E-16,0.));
#1100=DIRECTION('',(-1.19801345026023E-16,-1.,0.));
#1101=DIRECTION('',(1.19801345026023E-16,1.,0.));
#1102=DIRECTION('',(0.,0.,-1.));
#1103=DIRECTION('',(1.19801345026023E-16,1.,0.));
#1104=DIRECTION('',(0.,0.,-1.));
#1105=DIRECTION('',(-1.,0.,0.));
#1106=DIRECTION('',(-1.,1.19801345026023E-16,0.));
#1107=DIRECTION('',(1.19801345026023E-16,1.,0.));
#1108=DIRECTION('',(-1.,1.19801345026023E-16,0.));
#1109=DIRECTION('',(-1.19801345026023E-16,-1.,0.));
#1110=DIRECTION('',(0.,0.,1.));
#1111=DIRECTION('',(1.19801345026023E-16,1.,0.));
#1112=DIRECTION('',(0.,0.,-1.));
#1113=DIRECTION('',(-1.,0.,0.));
#1114=DIRECTION('',(1.,-1.19801345026023E-16,0.));
#1115=DIRECTION('',(-0.707106781186548,0.707106781186547,0.));
#1116=DIRECTION('',(0.,0.,-1.));
#1117=DIRECTION('',(-0.577350269189625,-0.577350269189626,-0.577350269189627));
#1118=DIRECTION('',(0.577350269189625,0.577350269189626,-0.577350269189627));
#1119=DIRECTION('',(-8.47123434631699E-17,-0.707106781186548,-0.707106781186547));
#1120=DIRECTION('',(-1.,1.19801345026023E-16,0.));
#1121=DIRECTION('',(0.577350269189626,-0.577350269189625,0.577350269189626));
#1122=DIRECTION('',(8.47123434631699E-17,0.707106781186548,-0.707106781186547));
#1123=DIRECTION('',(1.,-1.19801345026023E-16,0.));
#1124=DIRECTION('',(0.577350269189626,-0.577350269189625,-0.577350269189626));
#1125=DIRECTION('',(-0.707106781186547,-0.707106781186548,0.));
#1126=DIRECTION('',(0.,0.,1.));
#1127=CARTESIAN_POINT('',(0.,0.,0.));
#1128=CARTESIAN_POINT('',(0.0483,0.0036,0.0002));
#1129=CARTESIAN_POINT('',(0.0483,0.0036,-0.0134));
#1130=CARTESIAN_POINT('',(0.0312,0.0036,-0.0134));
#1131=CARTESIAN_POINT('',(0.0528,0.0036,-0.0134));
#1132=CARTESIAN_POINT('',(0.0312,0.0036,0.0002));
#1133=CARTESIAN_POINT('',(0.0312,0.0036,-0.0354));
#1134=CARTESIAN_POINT('',(0.0483,0.0036,-0.0354));
#1135=CARTESIAN_POINT('',(0.0654,0.0036,-0.0354));
#1136=CARTESIAN_POINT('',(0.0654,0.0036,0.0002));
#1137=CARTESIAN_POINT('',(0.0654,0.0036,-0.0013));
#1138=CARTESIAN_POINT('',(0.0674,0.0036,-0.0013));
#1139=CARTESIAN_POINT('',(0.0312,0.0036,-0.0013));
#1140=CARTESIAN_POINT('',(0.0312,0.0036,0.0002));
#1141=CARTESIAN_POINT('',(0.0312,0.0036,-0.0084));
#1142=CARTESIAN_POINT('',(0.0483,0.0036,-0.0084));
#1143=CARTESIAN_POINT('',(0.0528,0.0036,-0.0084));
#1144=CARTESIAN_POINT('',(0.0528,0.0036,0.0002));
#1145=CARTESIAN_POINT('',(0.0483,0.0036,-0.0234));
#1146=CARTESIAN_POINT('',(0.0418,0.0036,-0.0234));
#1147=CARTESIAN_POINT('',(0.0538,0.0036,-0.0234));
#1148=CARTESIAN_POINT('',(0.0538,0.0036,0.0002));
#1149=CARTESIAN_POINT('',(0.0538,0.0036,-0.0294));
#1150=CARTESIAN_POINT('',(0.0483,0.0036,-0.0294));
#1151=CARTESIAN_POINT('',(0.0418,0.0036,-0.0294));
#1152=CARTESIAN_POINT('',(0.0418,0.0036,0.0002));
#1153=CARTESIAN_POINT('',(0.0312,0.0046,0.0002));
#1154=CARTESIAN_POINT('',(0.0312,-0.0194,-0.0134));
#1155=CARTESIAN_POINT('',(0.0312,0.0056,-0.0134));
#1156=CARTESIAN_POINT('',(0.0312,0.0056,0.0002));
#1157=CARTESIAN_POINT('',(0.0312,0.0056,-0.0362));
#1158=CARTESIAN_POINT('',(0.0312,0.0233,-0.0185));
#1159=CARTESIAN_POINT('',(0.0312,0.0026,-0.0392));
#1160=CARTESIAN_POINT('',(0.0312,-0.1046,-0.0392));
#1161=CARTESIAN_POINT('',(0.0312,-0.1026,-0.0392));
#1162=CARTESIAN_POINT('',(0.0312,-0.0687,-0.0731));
#1163=CARTESIAN_POINT('',(0.0312,-0.1056,-0.0362));
#1164=CARTESIAN_POINT('',(0.0312,-0.1056,0.0002));
#1165=CARTESIAN_POINT('',(0.0312,-0.1056,0.001));
#1166=CARTESIAN_POINT('',(0.0312,-0.1032,0.001));
#1167=CARTESIAN_POINT('',(0.0312,-0.1028,0.001));
#1168=CARTESIAN_POINT('',(0.0312,-0.1032,0.0006));
#1169=CARTESIAN_POINT('',(0.0312,-0.1036,0.0002));
#1170=CARTESIAN_POINT('',(0.0312,-0.1036,0.0002));
#1171=CARTESIAN_POINT('',(0.0312,-0.1036,-0.0004));
#1172=CARTESIAN_POINT('',(0.0312,-0.1032,-0.0004));
#1173=CARTESIAN_POINT('',(0.0312,-0.102799999999998,-0.00039999999999917));
#1174=CARTESIAN_POINT('',(0.0312,-0.1032,-0.000799999999999585));
#1175=CARTESIAN_POINT('',(0.0312,-0.1036,-0.0012));
#1176=CARTESIAN_POINT('',(0.0312,-0.1036,0.0002));
#1177=CARTESIAN_POINT('',(0.0312,-0.1036,-0.0354));
#1178=CARTESIAN_POINT('',(0.0312,-0.1036,-0.0354));
#1179=CARTESIAN_POINT('',(0.0312,-0.1006,-0.0384));
#1180=CARTESIAN_POINT('',(0.0312,-0.1046,-0.0384));
#1181=CARTESIAN_POINT('',(0.0312,0.0006,-0.0384));
#1182=CARTESIAN_POINT('',(0.0312,0.0006,-0.0384));
#1183=CARTESIAN_POINT('',(0.0493,0.0056,0.0002));
#1184=CARTESIAN_POINT('',(0.0418,0.0056,-0.0224));
#1185=CARTESIAN_POINT('',(0.0548,0.0056,-0.0224));
#1186=CARTESIAN_POINT('',(0.0408,0.0056,-0.0224));
#1187=CARTESIAN_POINT('',(0.0408,0.0056,0.0002));
#1188=CARTESIAN_POINT('',(0.0408,0.0056,-0.0304));
#1189=CARTESIAN_POINT('',(0.0493,0.0056,-0.0304));
#1190=CARTESIAN_POINT('',(0.0548,0.0056,-0.0304));
#1191=CARTESIAN_POINT('',(0.0548,0.0056,-0.0234));
#1192=CARTESIAN_POINT('',(0.042,0.0056,-0.0134));
#1193=CARTESIAN_POINT('',(0.0528,0.0056,-0.0134));
#1194=CARTESIAN_POINT('',(0.0528,0.0056,-0.0109));
#1195=CARTESIAN_POINT('',(0.0528,0.0056,-0.0084));
#1196=CARTESIAN_POINT('',(0.042,0.0056,-0.0084));
#1197=CARTESIAN_POINT('',(0.0312,0.0056,-0.0084));
#1198=CARTESIAN_POINT('',(0.0312,0.0056,0.0002));
#1199=CARTESIAN_POINT('',(0.0312,0.0056,0.001));
#1200=CARTESIAN_POINT('',(0.0674,0.0056,0.001));
#1201=CARTESIAN_POINT('',(0.0674,0.0056,0.001));
#1202=CARTESIAN_POINT('',(0.0674,0.0056,0.0002));
#1203=CARTESIAN_POINT('',(0.0674,0.0056,-0.0362));
#1204=CARTESIAN_POINT('',(0.0312,0.0056,-0.0362));
#1205=CARTESIAN_POINT('',(0.0483,-0.1036,0.0002));
#1206=CARTESIAN_POINT('',(0.0674,-0.1036,-0.0012));
#1207=CARTESIAN_POINT('',(0.0654,-0.1036,-0.0012));
#1208=CARTESIAN_POINT('',(0.0654,-0.1036,0.0002));
#1209=CARTESIAN_POINT('',(0.0654,-0.1036,-0.0354));
#1210=CARTESIAN_POINT('',(0.0312,-0.1036,-0.0354));
#1211=CARTESIAN_POINT('',(0.0483,-0.1036,0.0002));
#1212=CARTESIAN_POINT('',(0.0654,-0.1036,0.0002));
#1213=CARTESIAN_POINT('',(0.0654,-0.1036,0.0002));
#1214=CARTESIAN_POINT('',(0.0654,-0.1036,-0.0004));
#1215=CARTESIAN_POINT('',(0.0674,-0.1036,-0.0004));
#1216=CARTESIAN_POINT('',(0.0483,-0.1036,0.0002));
#1217=CARTESIAN_POINT('',(0.0654,-0.05,0.0002));
#1218=CARTESIAN_POINT('',(0.0654,-0.0239500000000803,0.0262499999999978));
#1219=CARTESIAN_POINT('',(0.0654,0.00269999999999731,-0.0004));
#1220=CARTESIAN_POINT('',(0.0654,-0.05,-0.0354));
#1221=CARTESIAN_POINT('',(0.0654,-0.0760999999999657,0.0262999999999991));
#1222=CARTESIAN_POINT('',(0.0654,-0.102799999999998,-0.000399999999999169));
#1223=CARTESIAN_POINT('',(0.0654,-0.05,-0.0004));
#1224=CARTESIAN_POINT('',(0.0654,-0.1032,0.0006));
#1225=CARTESIAN_POINT('',(0.0654,-0.1028,0.001));
#1226=CARTESIAN_POINT('',(0.0654,-0.05,0.001));
#1227=CARTESIAN_POINT('',(0.0654,0.0028,0.001));
#1228=CARTESIAN_POINT('',(0.0654,0.0032,0.0006));
#1229=CARTESIAN_POINT('',(0.0654,0.0036,0.0002));
#1230=CARTESIAN_POINT('',(0.0654,0.0036,0.0002));
#1231=CARTESIAN_POINT('',(0.0654,0.0036,-0.0004));
#1232=CARTESIAN_POINT('',(0.0654,-0.05,-0.0004));
#1233=CARTESIAN_POINT('',(0.0483,0.0036,0.0002));
#1234=CARTESIAN_POINT('',(0.0674,0.0036,-0.0004));
#1235=CARTESIAN_POINT('',(0.0312,0.0036,-0.0004));
#1236=CARTESIAN_POINT('',(0.0483,0.0036,0.0002));
#1237=CARTESIAN_POINT('',(0.0312,0.0036,0.0002));
#1238=CARTESIAN_POINT('',(0.0312,0.0036,0.0002));
#1239=CARTESIAN_POINT('',(0.0312,0.0046,0.0002));
#1240=CARTESIAN_POINT('',(0.0312,-0.0194,-0.0084));
#1241=CARTESIAN_POINT('',(0.0312,0.00314999999999866,-0.00085));
#1242=CARTESIAN_POINT('',(0.0312,0.00269999999999731,-0.0004));
#1243=CARTESIAN_POINT('',(0.0312,0.00314999999999866,-0.0004));
#1244=CARTESIAN_POINT('',(0.0312,0.0032,0.0006));
#1245=CARTESIAN_POINT('',(0.0312,0.0028,0.001));
#1246=CARTESIAN_POINT('',(0.0312,0.0032,0.001));
#1247=CARTESIAN_POINT('',(0.0674,-0.05,0.0002));
#1248=CARTESIAN_POINT('',(0.0674,-0.1032,0.001));
#1249=CARTESIAN_POINT('',(0.0674,-0.1056,0.001));
#1250=CARTESIAN_POINT('',(0.0674,-0.1056,0.0002));
#1251=CARTESIAN_POINT('',(0.0674,-0.1056,-0.0362));
#1252=CARTESIAN_POINT('',(0.0674,0.0056,-0.0362));
#1253=CARTESIAN_POINT('',(0.0493,-0.1056,0.0002));
#1254=CARTESIAN_POINT('',(0.0493,-0.1056,-0.0362));
#1255=CARTESIAN_POINT('',(0.0674,-0.1056,0.001));
#1256=CARTESIAN_POINT('',(0.041,-0.05,-0.0392));
#1257=CARTESIAN_POINT('',(0.0457160930713866,-0.0519534697115821,-0.0392));
#1258=CARTESIAN_POINT('',(0.0357686709961845,-0.0759686709961838,-0.0392));
#1259=CARTESIAN_POINT('',(0.0320277720365503,-0.085,-0.0392));
#1260=CARTESIAN_POINT('',(0.0209673557298574,-0.0582977929468885,-0.0392));
#1261=CARTESIAN_POINT('',(0.0357686709961842,-0.0940313290038159,-0.0392));
#1262=CARTESIAN_POINT('',(0.0246664639430728,-0.0894326442701428,-0.0392));
#1263=CARTESIAN_POINT('',(0.0448000000000005,-0.0977722279634502,-0.0392));
#1264=CARTESIAN_POINT('',(0.058446530288418,-0.0921196500386526,-0.0392));
#1265=CARTESIAN_POINT('',(0.0538313290038166,-0.0940313290038162,-0.0392));
#1266=CARTESIAN_POINT('',(0.0675196500386529,-0.0609847987153985,-0.0392));
#1267=CARTESIAN_POINT('',(0.0575722279634508,-0.085,-0.0392));
#1268=CARTESIAN_POINT('',(0.0427709126971239,-0.0492664639430727,-0.0392));
#1269=CARTESIAN_POINT('',(0.0538313290038167,-0.075968670996184,-0.0392));
#1270=CARTESIAN_POINT('',(0.0336977929468892,-0.0676290873028766,-0.0392));
#1271=CARTESIAN_POINT('',(0.0448000000000007,-0.0722277720365497,-0.0392));
#1272=CARTESIAN_POINT('',(0.0494152012846021,-0.0703160930713862,-0.0392));
#1273=CARTESIAN_POINT('',(0.0644,-0.1056,-0.0392));
#1274=CARTESIAN_POINT('',(0.0644,0.0026,-0.0392));
#1275=CARTESIAN_POINT('',(0.0644,-0.1026,-0.0392));
#1276=CARTESIAN_POINT('',(0.041,-0.1026,-0.0392));
#1277=CARTESIAN_POINT('',(0.0674,0.0026,-0.0392));
#1278=CARTESIAN_POINT('',(0.041,-0.05,-0.0384));
#1279=CARTESIAN_POINT('',(0.0654,-0.1006,-0.0384));
#1280=CARTESIAN_POINT('',(0.0624,-0.1006,-0.0384));
#1281=CARTESIAN_POINT('',(0.0624,-0.05,-0.0384));
#1282=CARTESIAN_POINT('',(0.0624,0.0006,-0.0384));
#1283=CARTESIAN_POINT('',(0.041,0.0006,-0.0384));
#1284=CARTESIAN_POINT('',(0.0346373251423764,-0.0807904822439839,-0.0384));
#1285=CARTESIAN_POINT('',(0.0328936857967842,-0.085,-0.0384));
#1286=CARTESIAN_POINT('',(0.0363809644879687,-0.0765809644879679,-0.0384));
#1287=CARTESIAN_POINT('',(0.0405904822439846,-0.0748373251423758,-0.0384));
#1288=CARTESIAN_POINT('',(0.0448000000000007,-0.0730936857967836,-0.0384));
#1289=CARTESIAN_POINT('',(0.0490095177560166,-0.0748373251423759,-0.0384));
#1290=CARTESIAN_POINT('',(0.0532190355120326,-0.0765809644879681,-0.0384));
#1291=CARTESIAN_POINT('',(0.0549626748576247,-0.0807904822439841,-0.0384));
#1292=CARTESIAN_POINT('',(0.0567063142032169,-0.085,-0.0384));
#1293=CARTESIAN_POINT('',(0.0549626748576247,-0.0892095177560161,-0.0384));
#1294=CARTESIAN_POINT('',(0.0532190355120324,-0.0934190355120321,-0.0384));
#1295=CARTESIAN_POINT('',(0.0490095177560164,-0.0951626748576242,-0.0384));
#1296=CARTESIAN_POINT('',(0.0448,-0.0969063142032163,-0.0384));
#1297=CARTESIAN_POINT('',(0.0405904822439844,-0.095162674857624,-0.0384));
#1298=CARTESIAN_POINT('',(0.0363809644879685,-0.0934190355120319,-0.0384));
#1299=CARTESIAN_POINT('',(0.0346373251423763,-0.0892095177560159,-0.0384));
#1300=CARTESIAN_POINT('',(0.041,0.0006,-0.0384));
#1301=CARTESIAN_POINT('',(0.0455333333333333,-0.0162666666666667,-0.0552666666666667));
#1302=CARTESIAN_POINT('',(0.0624,-0.05,-0.0384));
#1303=CARTESIAN_POINT('',(0.0597,-0.0979,-0.0411));
#1304=CARTESIAN_POINT('',(0.0483,-0.1036,-0.0354));
#1305=CARTESIAN_POINT('',(0.0493,0.0056,-0.0362));
#1306=CARTESIAN_POINT('',(0.0613666666666667,-0.000433333333333326,-0.0422333333333334));
#1307=CARTESIAN_POINT('',(0.0674,-0.05,-0.0362));
#1308=CARTESIAN_POINT('',(0.0488666666666667,-0.0870666666666667,-0.0547333333333333));
#1309=CARTESIAN_POINT('',(0.041,-0.1026,-0.0392));
#1310=CARTESIAN_POINT('',(0.0549626748576247,-0.0807904822439841,-0.0384));
#1311=CARTESIAN_POINT('',(0.0525538595254821,-0.0772461404745186,-0.037530905690848));
#1312=CARTESIAN_POINT('',(0.0557656133016722,-0.085,-0.037530905690848));
#1313=CARTESIAN_POINT('',(0.0549626748576247,-0.0892095177560161,-0.0384));
#1314=CARTESIAN_POINT('',(0.0525538595254819,-0.0927538595254815,-0.037530905690848));
#1315=CARTESIAN_POINT('',(0.0490095177560166,-0.0748373251423759,-0.0384));
#1316=CARTESIAN_POINT('',(0.0448000000000007,-0.0740343866983282,-0.037530905690848));
#1317=CARTESIAN_POINT('',(0.0490095177560164,-0.0951626748576242,-0.0384));
#1318=CARTESIAN_POINT('',(0.0448000000000005,-0.0959656133016717,-0.037530905690848));
#1319=CARTESIAN_POINT('',(0.0405904822439846,-0.0748373251423758,-0.0384));
#1320=CARTESIAN_POINT('',(0.0370461404745191,-0.0772461404745184,-0.037530905690848));
#1321=CARTESIAN_POINT('',(0.0405904822439844,-0.095162674857624,-0.0384));
#1322=CARTESIAN_POINT('',(0.0370461404745189,-0.0927538595254813,-0.037530905690848));
#1323=CARTESIAN_POINT('',(0.0346373251423764,-0.0807904822439839,-0.0384));
#1324=CARTESIAN_POINT('',(0.0338343866983288,-0.085,-0.037530905690848));
#1325=CARTESIAN_POINT('',(0.0346373251423763,-0.0892095177560159,-0.0384));
#1326=CARTESIAN_POINT('',(0.0674,-0.1032,-0.0004));
#1327=CARTESIAN_POINT('',(0.0674,-0.102799999999998,-0.00039999999999917));
#1328=CARTESIAN_POINT('',(0.0674,-0.1032,-0.000799999999999585));
#1329=CARTESIAN_POINT('',(0.0674,0.00314999999999866,-0.00085));
#1330=CARTESIAN_POINT('',(0.0674,0.00269999999999731,-0.0004));
#1331=CARTESIAN_POINT('',(0.0674,0.00314999999999866,-0.0004));
#1332=CARTESIAN_POINT('',(0.0674,0.0032,0.0006));
#1333=CARTESIAN_POINT('',(0.0674,0.0028,0.001));
#1334=CARTESIAN_POINT('',(0.0674,-0.1032,0.0006));
#1335=CARTESIAN_POINT('',(0.0674,-0.1028,0.001));
#1336=CARTESIAN_POINT('',(0.0674,-0.1032,0.001));
#1337=CARTESIAN_POINT('',(0.0528,-0.0194,-0.0109));
#1338=CARTESIAN_POINT('',(0.0528,-0.0194,-0.0084));
#1339=CARTESIAN_POINT('',(0.0528,-0.0194,-0.0134));
#1340=CARTESIAN_POINT('',(0.042,-0.0194,-0.0134));
#1341=CARTESIAN_POINT('',(0.042,-0.0194,-0.0084));
#1342=CARTESIAN_POINT('',(0.0538,-0.0194,-0.0264));
#1343=CARTESIAN_POINT('',(0.0538,-0.0194,-0.0234));
#1344=CARTESIAN_POINT('',(0.0538,0.0046,-0.0234));
#1345=CARTESIAN_POINT('',(0.0538,0.0046,-0.0294));
#1346=CARTESIAN_POINT('',(0.0538,0.0046,-0.0294));
#1347=CARTESIAN_POINT('',(0.0538,-0.0194,-0.0294));
#1348=CARTESIAN_POINT('',(0.0478,-0.0194,-0.0294));
#1349=CARTESIAN_POINT('',(0.0478,0.0046,-0.0294));
#1350=CARTESIAN_POINT('',(0.0418,0.0046,-0.0294));
#1351=CARTESIAN_POINT('',(0.0418,-0.0194,-0.0294));
#1352=CARTESIAN_POINT('',(0.0418,-0.0194,-0.0264));
#1353=CARTESIAN_POINT('',(0.0418,0.0046,-0.0264));
#1354=CARTESIAN_POINT('',(0.0418,0.0046,-0.0234));
#1355=CARTESIAN_POINT('',(0.0418,-0.0194,-0.0234));
#1356=CARTESIAN_POINT('',(0.0478,-0.0194,-0.0234));
#1357=CARTESIAN_POINT('',(0.0538,0.0046,-0.0234));
#1358=CARTESIAN_POINT('',(0.0548,0.0056,0.0002));
#1359=CARTESIAN_POINT('',(0.0623333333333333,0.0131333333333333,-0.0148666666666666));
#1360=CARTESIAN_POINT('',(0.0518,0.0026,-0.0274));
#1361=CARTESIAN_POINT('',(0.0478,0.0046,-0.0294));
#1362=CARTESIAN_POINT('',(0.0428,0.0036,-0.0284));
#1363=CARTESIAN_POINT('',(0.0493,0.0056,-0.0224));
#1364=CARTESIAN_POINT('',(0.0428,0.0036,-0.0244));
#1365=CARTESIAN_POINT('',(0.0418,0.0046,-0.0264));
#1366=MECHANICAL_DESIGN_GEOMETRIC_PRESENTATION_REPRESENTATION('',(#863),
#1367);
#1367=(
GEOMETRIC_REPRESENTATION_CONTEXT(3)
GLOBAL_UNCERTAINTY_ASSIGNED_CONTEXT((#1368))
GLOBAL_UNIT_ASSIGNED_CONTEXT((#1371,#1370,#1369))
REPRESENTATION_CONTEXT('ComponentGuard','TOP_LEVEL_ASSEMBLY_PART')
);
#1368=UNCERTAINTY_MEASURE_WITH_UNIT(LENGTH_MEASURE(1.E-8),#1371,
'DISTANCE_ACCURACY_VALUE','Maximum Tolerance applied to model');
#1369=(
NAMED_UNIT(*)
SI_UNIT($,.STERADIAN.)
SOLID_ANGLE_UNIT()
);
#1370=(
NAMED_UNIT(*)
PLANE_ANGLE_UNIT()
SI_UNIT($,.RADIAN.)
);
#1371=(
LENGTH_UNIT()
NAMED_UNIT(*)
SI_UNIT($,.METRE.)
);
#1372=PRODUCT_DEFINITION_SHAPE('','',#1373);
#1373=PRODUCT_DEFINITION('','',#1375,#1374);
#1374=PRODUCT_DEFINITION_CONTEXT('',#1381,'design');
#1375=PRODUCT_DEFINITION_FORMATION_WITH_SPECIFIED_SOURCE('','',#1377,
 .NOT_KNOWN.);
#1376=PRODUCT_RELATED_PRODUCT_CATEGORY('','',(#1377));
#1377=PRODUCT('ComponentGuard','ComponentGuard','ComponentGuard',(#1379));
#1378=PRODUCT_CATEGORY('','');
#1379=PRODUCT_CONTEXT('',#1381,'mechanical');
#1380=APPLICATION_PROTOCOL_DEFINITION('international standard',
'ap242_managed_model_based_3d_engineering',2020,#1381);
#1381=APPLICATION_CONTEXT('managed model based 3d engineering');
ENDSEC;
END-ISO-10303-21;
