ISO-10303-21;
HEADER;
/* Generated by software containing ST-Developer
 * from STEP Tools, Inc. (www.steptools.com) 
 */
/* OPTION: using custom renumber hook */

FILE_DESCRIPTION(
/* description */ ('STEP AP242 Edition 2',
'CAx-IF Rec.Pracs.---Representation and Presentation of Product Manufa
cturing Information (PMI)---4.0---2014-10-13',
'CAx-IF Rec.Pracs.---3D Tessellated Geometry---0.4---2014-09-14','2;1',
'CAx-IF Rec.Pracs.---User Defined Attributes---1.5---2016-08-15'),
/* implementation_level */ '2;1');

FILE_NAME(
/* name */ 'BatteryCase-AABatteryBox - BatteryCap',
/* time_stamp */ '2026-09-18T14:38:35Z',
/* author */ (''),
/* organization */ (''),
/* preprocessor_version */ 'ST-DEVELOPER v20',
/* originating_system */ 'ONSHAPE BY PTC INC, 1.220',
/* authorisation */ '  ');

FILE_SCHEMA (('AP242_MANAGED_MODEL_BASED_3D_ENGINEERING_MIM_LF { 1 0 10303 442 3 1 4 }'));
ENDSEC;

DATA;
#10=SHAPE_REPRESENTATION_RELATIONSHIP('','',#703,#11);
#11=ADVANCED_BREP_SHAPE_REPRESENTATION('',(#701),#1107);
#12=ORIENTED_EDGE('',*,*,#200,.F.);
#13=ORIENTED_EDGE('',*,*,#201,.F.);
#14=ORIENTED_EDGE('',*,*,#202,.T.);
#15=ORIENTED_EDGE('',*,*,#203,.F.);
#16=ORIENTED_EDGE('',*,*,#204,.T.);
#17=ORIENTED_EDGE('',*,*,#205,.F.);
#18=ORIENTED_EDGE('',*,*,#206,.F.);
#19=ORIENTED_EDGE('',*,*,#207,.F.);
#20=ORIENTED_EDGE('',*,*,#208,.F.);
#21=ORIENTED_EDGE('',*,*,#209,.F.);
#22=ORIENTED_EDGE('',*,*,#210,.F.);
#23=ORIENTED_EDGE('',*,*,#211,.F.);
#24=ORIENTED_EDGE('',*,*,#212,.T.);
#25=ORIENTED_EDGE('',*,*,#213,.T.);
#26=ORIENTED_EDGE('',*,*,#214,.T.);
#27=ORIENTED_EDGE('',*,*,#215,.F.);
#28=ORIENTED_EDGE('',*,*,#216,.F.);
#29=ORIENTED_EDGE('',*,*,#215,.T.);
#30=ORIENTED_EDGE('',*,*,#217,.T.);
#31=ORIENTED_EDGE('',*,*,#218,.T.);
#32=ORIENTED_EDGE('',*,*,#219,.F.);
#33=ORIENTED_EDGE('',*,*,#220,.T.);
#34=ORIENTED_EDGE('',*,*,#221,.T.);
#35=ORIENTED_EDGE('',*,*,#222,.F.);
#36=ORIENTED_EDGE('',*,*,#223,.F.);
#37=ORIENTED_EDGE('',*,*,#224,.F.);
#38=ORIENTED_EDGE('',*,*,#225,.T.);
#39=ORIENTED_EDGE('',*,*,#226,.T.);
#40=ORIENTED_EDGE('',*,*,#227,.F.);
#41=ORIENTED_EDGE('',*,*,#228,.F.);
#42=ORIENTED_EDGE('',*,*,#229,.T.);
#43=ORIENTED_EDGE('',*,*,#201,.T.);
#44=ORIENTED_EDGE('',*,*,#226,.F.);
#45=ORIENTED_EDGE('',*,*,#230,.T.);
#46=ORIENTED_EDGE('',*,*,#220,.F.);
#47=ORIENTED_EDGE('',*,*,#231,.T.);
#48=ORIENTED_EDGE('',*,*,#232,.T.);
#49=ORIENTED_EDGE('',*,*,#233,.T.);
#50=ORIENTED_EDGE('',*,*,#231,.F.);
#51=ORIENTED_EDGE('',*,*,#219,.T.);
#52=ORIENTED_EDGE('',*,*,#234,.F.);
#53=ORIENTED_EDGE('',*,*,#235,.F.);
#54=ORIENTED_EDGE('',*,*,#236,.F.);
#55=ORIENTED_EDGE('',*,*,#210,.T.);
#56=ORIENTED_EDGE('',*,*,#237,.T.);
#57=ORIENTED_EDGE('',*,*,#238,.T.);
#58=ORIENTED_EDGE('',*,*,#239,.F.);
#59=ORIENTED_EDGE('',*,*,#240,.T.);
#60=ORIENTED_EDGE('',*,*,#241,.T.);
#61=ORIENTED_EDGE('',*,*,#242,.F.);
#62=ORIENTED_EDGE('',*,*,#243,.T.);
#63=ORIENTED_EDGE('',*,*,#218,.F.);
#64=ORIENTED_EDGE('',*,*,#244,.T.);
#65=ORIENTED_EDGE('',*,*,#245,.F.);
#66=ORIENTED_EDGE('',*,*,#234,.T.);
#67=ORIENTED_EDGE('',*,*,#246,.F.);
#68=ORIENTED_EDGE('',*,*,#247,.T.);
#69=ORIENTED_EDGE('',*,*,#228,.T.);
#70=ORIENTED_EDGE('',*,*,#248,.F.);
#71=ORIENTED_EDGE('',*,*,#249,.T.);
#72=ORIENTED_EDGE('',*,*,#241,.F.);
#73=ORIENTED_EDGE('',*,*,#250,.F.);
#74=ORIENTED_EDGE('',*,*,#251,.F.);
#75=ORIENTED_EDGE('',*,*,#252,.F.);
#76=ORIENTED_EDGE('',*,*,#245,.T.);
#77=ORIENTED_EDGE('',*,*,#253,.T.);
#78=ORIENTED_EDGE('',*,*,#254,.F.);
#79=ORIENTED_EDGE('',*,*,#235,.T.);
#80=ORIENTED_EDGE('',*,*,#255,.F.);
#81=ORIENTED_EDGE('',*,*,#256,.T.);
#82=ORIENTED_EDGE('',*,*,#257,.F.);
#83=ORIENTED_EDGE('',*,*,#258,.F.);
#84=ORIENTED_EDGE('',*,*,#207,.T.);
#85=ORIENTED_EDGE('',*,*,#259,.T.);
#86=ORIENTED_EDGE('',*,*,#260,.T.);
#87=ORIENTED_EDGE('',*,*,#205,.T.);
#88=ORIENTED_EDGE('',*,*,#261,.T.);
#89=ORIENTED_EDGE('',*,*,#262,.T.);
#90=ORIENTED_EDGE('',*,*,#263,.F.);
#91=ORIENTED_EDGE('',*,*,#254,.T.);
#92=ORIENTED_EDGE('',*,*,#264,.T.);
#93=ORIENTED_EDGE('',*,*,#211,.T.);
#94=ORIENTED_EDGE('',*,*,#236,.T.);
#95=ORIENTED_EDGE('',*,*,#265,.T.);
#96=ORIENTED_EDGE('',*,*,#266,.T.);
#97=ORIENTED_EDGE('',*,*,#237,.F.);
#98=ORIENTED_EDGE('',*,*,#209,.T.);
#99=ORIENTED_EDGE('',*,*,#258,.T.);
#100=ORIENTED_EDGE('',*,*,#267,.T.);
#101=ORIENTED_EDGE('',*,*,#265,.F.);
#102=ORIENTED_EDGE('',*,*,#208,.T.);
#103=ORIENTED_EDGE('',*,*,#263,.T.);
#104=ORIENTED_EDGE('',*,*,#268,.T.);
#105=ORIENTED_EDGE('',*,*,#259,.F.);
#106=ORIENTED_EDGE('',*,*,#206,.T.);
#107=ORIENTED_EDGE('',*,*,#262,.F.);
#108=ORIENTED_EDGE('',*,*,#269,.T.);
#109=ORIENTED_EDGE('',*,*,#246,.T.);
#110=ORIENTED_EDGE('',*,*,#270,.F.);
#111=ORIENTED_EDGE('',*,*,#271,.T.);
#112=ORIENTED_EDGE('',*,*,#272,.T.);
#113=ORIENTED_EDGE('',*,*,#238,.F.);
#114=ORIENTED_EDGE('',*,*,#266,.F.);
#115=ORIENTED_EDGE('',*,*,#257,.T.);
#116=ORIENTED_EDGE('',*,*,#251,.T.);
#117=ORIENTED_EDGE('',*,*,#271,.F.);
#118=ORIENTED_EDGE('',*,*,#267,.F.);
#119=ORIENTED_EDGE('',*,*,#270,.T.);
#120=ORIENTED_EDGE('',*,*,#273,.T.);
#121=ORIENTED_EDGE('',*,*,#260,.F.);
#122=ORIENTED_EDGE('',*,*,#268,.F.);
#123=ORIENTED_EDGE('',*,*,#274,.T.);
#124=ORIENTED_EDGE('',*,*,#239,.T.);
#125=ORIENTED_EDGE('',*,*,#272,.F.);
#126=ORIENTED_EDGE('',*,*,#274,.F.);
#127=ORIENTED_EDGE('',*,*,#250,.T.);
#128=ORIENTED_EDGE('',*,*,#240,.F.);
#129=ORIENTED_EDGE('',*,*,#275,.T.);
#130=ORIENTED_EDGE('',*,*,#255,.T.);
#131=ORIENTED_EDGE('',*,*,#273,.F.);
#132=ORIENTED_EDGE('',*,*,#275,.F.);
#133=ORIENTED_EDGE('',*,*,#252,.T.);
#134=ORIENTED_EDGE('',*,*,#256,.F.);
#135=ORIENTED_EDGE('',*,*,#232,.F.);
#136=ORIENTED_EDGE('',*,*,#233,.F.);
#137=ORIENTED_EDGE('',*,*,#276,.F.);
#138=ORIENTED_EDGE('',*,*,#227,.T.);
#139=ORIENTED_EDGE('',*,*,#277,.F.);
#140=ORIENTED_EDGE('',*,*,#248,.T.);
#141=ORIENTED_EDGE('',*,*,#276,.T.);
#142=ORIENTED_EDGE('',*,*,#243,.F.);
#143=ORIENTED_EDGE('',*,*,#277,.T.);
#144=ORIENTED_EDGE('',*,*,#242,.T.);
#145=ORIENTED_EDGE('',*,*,#249,.F.);
#146=ORIENTED_EDGE('',*,*,#213,.F.);
#147=ORIENTED_EDGE('',*,*,#278,.T.);
#148=ORIENTED_EDGE('',*,*,#279,.T.);
#149=ORIENTED_EDGE('',*,*,#280,.T.);
#150=ORIENTED_EDGE('',*,*,#281,.T.);
#151=ORIENTED_EDGE('',*,*,#203,.T.);
#152=ORIENTED_EDGE('',*,*,#282,.T.);
#153=ORIENTED_EDGE('',*,*,#283,.T.);
#154=ORIENTED_EDGE('',*,*,#284,.T.);
#155=ORIENTED_EDGE('',*,*,#285,.T.);
#156=ORIENTED_EDGE('',*,*,#204,.F.);
#157=ORIENTED_EDGE('',*,*,#285,.F.);
#158=ORIENTED_EDGE('',*,*,#286,.F.);
#159=ORIENTED_EDGE('',*,*,#261,.F.);
#160=ORIENTED_EDGE('',*,*,#286,.T.);
#161=ORIENTED_EDGE('',*,*,#284,.F.);
#162=ORIENTED_EDGE('',*,*,#287,.F.);
#163=ORIENTED_EDGE('',*,*,#269,.F.);
#164=ORIENTED_EDGE('',*,*,#287,.T.);
#165=ORIENTED_EDGE('',*,*,#283,.F.);
#166=ORIENTED_EDGE('',*,*,#288,.F.);
#167=ORIENTED_EDGE('',*,*,#247,.F.);
#168=ORIENTED_EDGE('',*,*,#202,.F.);
#169=ORIENTED_EDGE('',*,*,#229,.F.);
#170=ORIENTED_EDGE('',*,*,#288,.T.);
#171=ORIENTED_EDGE('',*,*,#282,.F.);
#172=ORIENTED_EDGE('',*,*,#279,.F.);
#173=ORIENTED_EDGE('',*,*,#289,.T.);
#174=ORIENTED_EDGE('',*,*,#253,.F.);
#175=ORIENTED_EDGE('',*,*,#290,.F.);
#176=ORIENTED_EDGE('',*,*,#290,.T.);
#177=ORIENTED_EDGE('',*,*,#244,.F.);
#178=ORIENTED_EDGE('',*,*,#291,.F.);
#179=ORIENTED_EDGE('',*,*,#280,.F.);
#180=ORIENTED_EDGE('',*,*,#214,.F.);
#181=ORIENTED_EDGE('',*,*,#281,.F.);
#182=ORIENTED_EDGE('',*,*,#291,.T.);
#183=ORIENTED_EDGE('',*,*,#217,.F.);
#184=ORIENTED_EDGE('',*,*,#212,.F.);
#185=ORIENTED_EDGE('',*,*,#264,.F.);
#186=ORIENTED_EDGE('',*,*,#289,.F.);
#187=ORIENTED_EDGE('',*,*,#278,.F.);
#188=ORIENTED_EDGE('',*,*,#223,.T.);
#189=ORIENTED_EDGE('',*,*,#200,.T.);
#190=ORIENTED_EDGE('',*,*,#216,.T.);
#191=ORIENTED_EDGE('',*,*,#292,.F.);
#192=ORIENTED_EDGE('',*,*,#224,.T.);
#193=ORIENTED_EDGE('',*,*,#292,.T.);
#194=ORIENTED_EDGE('',*,*,#222,.T.);
#195=ORIENTED_EDGE('',*,*,#293,.F.);
#196=ORIENTED_EDGE('',*,*,#293,.T.);
#197=ORIENTED_EDGE('',*,*,#221,.F.);
#198=ORIENTED_EDGE('',*,*,#230,.F.);
#199=ORIENTED_EDGE('',*,*,#225,.F.);
#200=EDGE_CURVE('',#294,#295,#352,.T.);
#201=EDGE_CURVE('',#296,#294,#353,.T.);
#202=EDGE_CURVE('',#296,#297,#354,.T.);
#203=EDGE_CURVE('',#298,#297,#355,.T.);
#204=EDGE_CURVE('',#298,#299,#356,.T.);
#205=EDGE_CURVE('',#300,#299,#357,.T.);
#206=EDGE_CURVE('',#301,#300,#358,.F.);
#207=EDGE_CURVE('',#302,#301,#359,.T.);
#208=EDGE_CURVE('',#303,#302,#360,.T.);
#209=EDGE_CURVE('',#304,#303,#361,.T.);
#210=EDGE_CURVE('',#305,#304,#362,.T.);
#211=EDGE_CURVE('',#306,#305,#363,.F.);
#212=EDGE_CURVE('',#306,#307,#364,.F.);
#213=EDGE_CURVE('',#307,#308,#365,.T.);
#214=EDGE_CURVE('',#308,#309,#366,.T.);
#215=EDGE_CURVE('',#295,#309,#367,.T.);
#216=EDGE_CURVE('',#295,#310,#368,.T.);
#217=EDGE_CURVE('',#309,#311,#369,.T.);
#218=EDGE_CURVE('',#311,#312,#370,.T.);
#219=EDGE_CURVE('',#313,#312,#371,.T.);
#220=EDGE_CURVE('',#313,#314,#372,.T.);
#221=EDGE_CURVE('',#314,#315,#373,.T.);
#222=EDGE_CURVE('',#310,#315,#374,.T.);
#223=EDGE_CURVE('',#316,#294,#375,.T.);
#224=EDGE_CURVE('',#317,#316,#376,.T.);
#225=EDGE_CURVE('',#317,#318,#377,.T.);
#226=EDGE_CURVE('',#318,#319,#378,.T.);
#227=EDGE_CURVE('',#320,#319,#379,.T.);
#228=EDGE_CURVE('',#321,#320,#380,.T.);
#229=EDGE_CURVE('',#321,#296,#381,.T.);
#230=EDGE_CURVE('',#318,#314,#382,.T.);
#231=EDGE_CURVE('',#313,#322,#383,.T.);
#232=EDGE_CURVE('',#322,#319,#384,.T.);
#233=EDGE_CURVE('',#323,#322,#385,.T.);
#234=EDGE_CURVE('',#324,#312,#386,.T.);
#235=EDGE_CURVE('',#325,#324,#387,.T.);
#236=EDGE_CURVE('',#305,#325,#388,.T.);
#237=EDGE_CURVE('',#304,#326,#389,.T.);
#238=EDGE_CURVE('',#326,#327,#390,.T.);
#239=EDGE_CURVE('',#328,#327,#391,.T.);
#240=EDGE_CURVE('',#328,#329,#392,.T.);
#241=EDGE_CURVE('',#329,#330,#393,.T.);
#242=EDGE_CURVE('',#331,#330,#394,.T.);
#243=EDGE_CURVE('',#331,#323,#395,.T.);
#244=EDGE_CURVE('',#311,#332,#396,.T.);
#245=EDGE_CURVE('',#324,#332,#397,.T.);
#246=EDGE_CURVE('',#333,#334,#398,.T.);
#247=EDGE_CURVE('',#333,#321,#399,.T.);
#248=EDGE_CURVE('',#335,#320,#400,.T.);
#249=EDGE_CURVE('',#335,#330,#401,.T.);
#250=EDGE_CURVE('',#336,#329,#402,.T.);
#251=EDGE_CURVE('',#337,#336,#403,.T.);
#252=EDGE_CURVE('',#334,#337,#404,.T.);
#253=EDGE_CURVE('',#332,#338,#405,.T.);
#254=EDGE_CURVE('',#325,#338,#406,.T.);
#255=EDGE_CURVE('',#339,#340,#407,.T.);
#256=EDGE_CURVE('',#339,#337,#408,.T.);
#257=EDGE_CURVE('',#341,#337,#409,.T.);
#258=EDGE_CURVE('',#302,#341,#410,.T.);
#259=EDGE_CURVE('',#301,#342,#411,.T.);
#260=EDGE_CURVE('',#342,#340,#412,.T.);
#261=EDGE_CURVE('',#299,#343,#413,.T.);
#262=EDGE_CURVE('',#343,#344,#414,.T.);
#263=EDGE_CURVE('',#300,#344,#415,.T.);
#264=EDGE_CURVE('',#338,#306,#416,.T.);
#265=EDGE_CURVE('',#303,#345,#417,.T.);
#266=EDGE_CURVE('',#345,#326,#418,.T.);
#267=EDGE_CURVE('',#341,#345,#419,.T.);
#268=EDGE_CURVE('',#344,#342,#420,.T.);
#269=EDGE_CURVE('',#343,#333,#421,.T.);
#270=EDGE_CURVE('',#344,#334,#422,.T.);
#271=EDGE_CURVE('',#345,#336,#423,.T.);
#272=EDGE_CURVE('',#336,#327,#424,.T.);
#273=EDGE_CURVE('',#334,#340,#425,.T.);
#274=EDGE_CURVE('',#336,#328,#426,.T.);
#275=EDGE_CURVE('',#334,#339,#427,.T.);
#276=EDGE_CURVE('',#320,#323,#428,.T.);
#277=EDGE_CURVE('',#335,#331,#429,.T.);
#278=EDGE_CURVE('',#307,#346,#430,.T.);
#279=EDGE_CURVE('',#346,#347,#431,.T.);
#280=EDGE_CURVE('',#347,#348,#432,.T.);
#281=EDGE_CURVE('',#348,#308,#433,.T.);
#282=EDGE_CURVE('',#297,#349,#434,.T.);
#283=EDGE_CURVE('',#349,#350,#435,.T.);
#284=EDGE_CURVE('',#350,#351,#436,.T.);
#285=EDGE_CURVE('',#351,#298,#437,.T.);
#286=EDGE_CURVE('',#343,#351,#438,.F.);
#287=EDGE_CURVE('',#333,#350,#439,.F.);
#288=EDGE_CURVE('',#321,#349,#440,.F.);
#289=EDGE_CURVE('',#346,#338,#441,.T.);
#290=EDGE_CURVE('',#347,#332,#442,.F.);
#291=EDGE_CURVE('',#348,#311,#443,.T.);
#292=EDGE_CURVE('',#316,#310,#444,.T.);
#293=EDGE_CURVE('',#317,#315,#445,.T.);
#294=VERTEX_POINT('',#918);
#295=VERTEX_POINT('',#919);
#296=VERTEX_POINT('',#921);
#297=VERTEX_POINT('',#923);
#298=VERTEX_POINT('',#925);
#299=VERTEX_POINT('',#927);
#300=VERTEX_POINT('',#929);
#301=VERTEX_POINT('',#931);
#302=VERTEX_POINT('',#933);
#303=VERTEX_POINT('',#935);
#304=VERTEX_POINT('',#937);
#305=VERTEX_POINT('',#939);
#306=VERTEX_POINT('',#941);
#307=VERTEX_POINT('',#943);
#308=VERTEX_POINT('',#945);
#309=VERTEX_POINT('',#947);
#310=VERTEX_POINT('',#951);
#311=VERTEX_POINT('',#953);
#312=VERTEX_POINT('',#955);
#313=VERTEX_POINT('',#957);
#314=VERTEX_POINT('',#959);
#315=VERTEX_POINT('',#961);
#316=VERTEX_POINT('',#965);
#317=VERTEX_POINT('',#967);
#318=VERTEX_POINT('',#969);
#319=VERTEX_POINT('',#971);
#320=VERTEX_POINT('',#973);
#321=VERTEX_POINT('',#975);
#322=VERTEX_POINT('',#980);
#323=VERTEX_POINT('',#984);
#324=VERTEX_POINT('',#986);
#325=VERTEX_POINT('',#988);
#326=VERTEX_POINT('',#991);
#327=VERTEX_POINT('',#993);
#328=VERTEX_POINT('',#995);
#329=VERTEX_POINT('',#997);
#330=VERTEX_POINT('',#999);
#331=VERTEX_POINT('',#1001);
#332=VERTEX_POINT('',#1005);
#333=VERTEX_POINT('',#1009);
#334=VERTEX_POINT('',#1010);
#335=VERTEX_POINT('',#1013);
#336=VERTEX_POINT('',#1016);
#337=VERTEX_POINT('',#1018);
#338=VERTEX_POINT('',#1022);
#339=VERTEX_POINT('',#1026);
#340=VERTEX_POINT('',#1027);
#341=VERTEX_POINT('',#1030);
#342=VERTEX_POINT('',#1033);
#343=VERTEX_POINT('',#1037);
#344=VERTEX_POINT('',#1039);
#345=VERTEX_POINT('',#1045);
#346=VERTEX_POINT('',#1073);
#347=VERTEX_POINT('',#1075);
#348=VERTEX_POINT('',#1077);
#349=VERTEX_POINT('',#1081);
#350=VERTEX_POINT('',#1083);
#351=VERTEX_POINT('',#1085);
#352=LINE('',#917,#446);
#353=LINE('',#920,#447);
#354=LINE('',#922,#448);
#355=LINE('',#924,#449);
#356=LINE('',#926,#450);
#357=LINE('',#928,#451);
#358=LINE('',#930,#452);
#359=LINE('',#932,#453);
#360=LINE('',#934,#454);
#361=LINE('',#936,#455);
#362=LINE('',#938,#456);
#363=LINE('',#940,#457);
#364=LINE('',#942,#458);
#365=LINE('',#944,#459);
#366=LINE('',#946,#460);
#367=LINE('',#948,#461);
#368=LINE('',#950,#462);
#369=LINE('',#952,#463);
#370=LINE('',#954,#464);
#371=LINE('',#956,#465);
#372=LINE('',#958,#466);
#373=LINE('',#960,#467);
#374=LINE('',#962,#468);
#375=LINE('',#964,#469);
#376=LINE('',#966,#470);
#377=LINE('',#968,#471);
#378=LINE('',#970,#472);
#379=LINE('',#972,#473);
#380=LINE('',#974,#474);
#381=LINE('',#976,#475);
#382=LINE('',#978,#476);
#383=LINE('',#979,#477);
#384=LINE('',#981,#478);
#385=LINE('',#983,#479);
#386=LINE('',#985,#480);
#387=LINE('',#987,#481);
#388=LINE('',#989,#482);
#389=LINE('',#990,#483);
#390=LINE('',#992,#484);
#391=LINE('',#994,#485);
#392=LINE('',#996,#486);
#393=LINE('',#998,#487);
#394=LINE('',#1000,#488);
#395=LINE('',#1002,#489);
#396=LINE('',#1004,#490);
#397=LINE('',#1006,#491);
#398=LINE('',#1008,#492);
#399=LINE('',#1011,#493);
#400=LINE('',#1012,#494);
#401=LINE('',#1014,#495);
#402=LINE('',#1015,#496);
#403=LINE('',#1017,#497);
#404=LINE('',#1019,#498);
#405=LINE('',#1021,#499);
#406=LINE('',#1023,#500);
#407=LINE('',#1025,#501);
#408=LINE('',#1028,#502);
#409=LINE('',#1029,#503);
#410=LINE('',#1031,#504);
#411=LINE('',#1032,#505);
#412=LINE('',#1034,#506);
#413=LINE('',#1036,#507);
#414=LINE('',#1038,#508);
#415=LINE('',#1040,#509);
#416=LINE('',#1042,#510);
#417=LINE('',#1044,#511);
#418=LINE('',#1046,#512);
#419=LINE('',#1048,#513);
#420=LINE('',#1050,#514);
#421=LINE('',#1052,#515);
#422=LINE('',#1053,#516);
#423=LINE('',#1055,#517);
#424=LINE('',#1056,#518);
#425=LINE('',#1059,#519);
#426=LINE('',#1061,#520);
#427=LINE('',#1064,#521);
#428=LINE('',#1067,#522);
#429=LINE('',#1069,#523);
#430=LINE('',#1072,#524);
#431=LINE('',#1074,#525);
#432=LINE('',#1076,#526);
#433=LINE('',#1078,#527);
#434=LINE('',#1080,#528);
#435=LINE('',#1082,#529);
#436=LINE('',#1084,#530);
#437=LINE('',#1086,#531);
#438=LINE('',#1088,#532);
#439=LINE('',#1090,#533);
#440=LINE('',#1092,#534);
#441=LINE('',#1095,#535);
#442=LINE('',#1096,#536);
#443=LINE('',#1098,#537);
#444=LINE('',#1102,#538);
#445=LINE('',#1104,#539);
#446=VECTOR('',#747,1.);
#447=VECTOR('',#748,1.);
#448=VECTOR('',#749,1.);
#449=VECTOR('',#750,1.);
#450=VECTOR('',#751,1.);
#451=VECTOR('',#752,1.);
#452=VECTOR('',#753,1.);
#453=VECTOR('',#754,1.);
#454=VECTOR('',#755,1.);
#455=VECTOR('',#756,1.);
#456=VECTOR('',#757,1.);
#457=VECTOR('',#758,1.);
#458=VECTOR('',#759,1.);
#459=VECTOR('',#760,1.);
#460=VECTOR('',#761,1.);
#461=VECTOR('',#762,1.);
#462=VECTOR('',#765,1.);
#463=VECTOR('',#766,1.);
#464=VECTOR('',#767,1.);
#465=VECTOR('',#768,1.);
#466=VECTOR('',#769,1.);
#467=VECTOR('',#770,1.);
#468=VECTOR('',#771,1.);
#469=VECTOR('',#774,1.);
#470=VECTOR('',#775,1.);
#471=VECTOR('',#776,1.);
#472=VECTOR('',#777,1.);
#473=VECTOR('',#778,1.);
#474=VECTOR('',#779,1.);
#475=VECTOR('',#780,1.);
#476=VECTOR('',#783,1.);
#477=VECTOR('',#784,1.);
#478=VECTOR('',#785,1.);
#479=VECTOR('',#788,1.);
#480=VECTOR('',#789,1.);
#481=VECTOR('',#790,1.);
#482=VECTOR('',#791,1.);
#483=VECTOR('',#792,1.);
#484=VECTOR('',#793,1.);
#485=VECTOR('',#794,1.);
#486=VECTOR('',#795,1.);
#487=VECTOR('',#796,1.);
#488=VECTOR('',#797,1.);
#489=VECTOR('',#798,1.);
#490=VECTOR('',#801,1.);
#491=VECTOR('',#802,1.);
#492=VECTOR('',#805,1.);
#493=VECTOR('',#806,1.);
#494=VECTOR('',#807,1.);
#495=VECTOR('',#808,1.);
#496=VECTOR('',#809,1.);
#497=VECTOR('',#810,1.);
#498=VECTOR('',#811,1.);
#499=VECTOR('',#814,1.);
#500=VECTOR('',#815,1.);
#501=VECTOR('',#818,1.);
#502=VECTOR('',#819,1.);
#503=VECTOR('',#820,1.);
#504=VECTOR('',#821,1.);
#505=VECTOR('',#822,1.);
#506=VECTOR('',#823,1.);
#507=VECTOR('',#826,1.);
#508=VECTOR('',#827,1.);
#509=VECTOR('',#828,1.);
#510=VECTOR('',#831,1.);
#511=VECTOR('',#834,1.);
#512=VECTOR('',#835,1.);
#513=VECTOR('',#838,1.);
#514=VECTOR('',#841,1.);
#515=VECTOR('',#844,1.);
#516=VECTOR('',#845,1.);
#517=VECTOR('',#848,1.);
#518=VECTOR('',#849,1.);
#519=VECTOR('',#854,1.);
#520=VECTOR('',#857,1.);
#521=VECTOR('',#862,1.);
#522=VECTOR('',#867,1.);
#523=VECTOR('',#870,1.);
#524=VECTOR('',#875,1.);
#525=VECTOR('',#876,1.);
#526=VECTOR('',#877,1.);
#527=VECTOR('',#878,1.);
#528=VECTOR('',#881,1.);
#529=VECTOR('',#882,1.);
#530=VECTOR('',#883,1.);
#531=VECTOR('',#884,1.);
#532=VECTOR('',#887,1.);
#533=VECTOR('',#890,1.);
#534=VECTOR('',#893,1.);
#535=VECTOR('',#898,1.);
#536=VECTOR('',#899,1.);
#537=VECTOR('',#902,1.);
#538=VECTOR('',#909,1.);
#539=VECTOR('',#912,1.);
#540=EDGE_LOOP('',(#12,#13,#14,#15,#16,#17,#18,#19,#20,#21,#22,#23,#24,
#25,#26,#27));
#541=EDGE_LOOP('',(#28,#29,#30,#31,#32,#33,#34,#35));
#542=EDGE_LOOP('',(#36,#37,#38,#39,#40,#41,#42,#43));
#543=EDGE_LOOP('',(#44,#45,#46,#47,#48));
#544=EDGE_LOOP('',(#49,#50,#51,#52,#53,#54,#55,#56,#57,#58,#59,#60,#61,
#62));
#545=EDGE_LOOP('',(#63,#64,#65,#66));
#546=EDGE_LOOP('',(#67,#68,#69,#70,#71,#72,#73,#74,#75));
#547=EDGE_LOOP('',(#76,#77,#78,#79));
#548=EDGE_LOOP('',(#80,#81,#82,#83,#84,#85,#86));
#549=EDGE_LOOP('',(#87,#88,#89,#90));
#550=EDGE_LOOP('',(#91,#92,#93,#94));
#551=EDGE_LOOP('',(#95,#96,#97,#98));
#552=EDGE_LOOP('',(#99,#100,#101,#102));
#553=EDGE_LOOP('',(#103,#104,#105,#106));
#554=EDGE_LOOP('',(#107,#108,#109,#110));
#555=EDGE_LOOP('',(#111,#112,#113,#114));
#556=EDGE_LOOP('',(#115,#116,#117,#118));
#557=EDGE_LOOP('',(#119,#120,#121,#122));
#558=EDGE_LOOP('',(#123,#124,#125));
#559=EDGE_LOOP('',(#126,#127,#128));
#560=EDGE_LOOP('',(#129,#130,#131));
#561=EDGE_LOOP('',(#132,#133,#134));
#562=EDGE_LOOP('',(#135,#136,#137,#138));
#563=EDGE_LOOP('',(#139,#140,#141,#142));
#564=EDGE_LOOP('',(#143,#144,#145));
#565=EDGE_LOOP('',(#146,#147,#148,#149,#150));
#566=EDGE_LOOP('',(#151,#152,#153,#154,#155));
#567=EDGE_LOOP('',(#156,#157,#158,#159));
#568=EDGE_LOOP('',(#160,#161,#162,#163));
#569=EDGE_LOOP('',(#164,#165,#166,#167));
#570=EDGE_LOOP('',(#168,#169,#170,#171));
#571=EDGE_LOOP('',(#172,#173,#174,#175));
#572=EDGE_LOOP('',(#176,#177,#178,#179));
#573=EDGE_LOOP('',(#180,#181,#182,#183));
#574=EDGE_LOOP('',(#184,#185,#186,#187));
#575=EDGE_LOOP('',(#188,#189,#190,#191));
#576=EDGE_LOOP('',(#192,#193,#194,#195));
#577=EDGE_LOOP('',(#196,#197,#198,#199));
#578=FACE_BOUND('',#540,.T.);
#579=FACE_BOUND('',#541,.T.);
#580=FACE_BOUND('',#542,.T.);
#581=FACE_BOUND('',#543,.T.);
#582=FACE_BOUND('',#544,.T.);
#583=FACE_BOUND('',#545,.T.);
#584=FACE_BOUND('',#546,.T.);
#585=FACE_BOUND('',#547,.T.);
#586=FACE_BOUND('',#548,.T.);
#587=FACE_BOUND('',#549,.T.);
#588=FACE_BOUND('',#550,.T.);
#589=FACE_BOUND('',#551,.T.);
#590=FACE_BOUND('',#552,.T.);
#591=FACE_BOUND('',#553,.T.);
#592=FACE_BOUND('',#554,.T.);
#593=FACE_BOUND('',#555,.T.);
#594=FACE_BOUND('',#556,.T.);
#595=FACE_BOUND('',#557,.T.);
#596=FACE_BOUND('',#558,.T.);
#597=FACE_BOUND('',#559,.T.);
#598=FACE_BOUND('',#560,.T.);
#599=FACE_BOUND('',#561,.T.);
#600=FACE_BOUND('',#562,.T.);
#601=FACE_BOUND('',#563,.T.);
#602=FACE_BOUND('',#564,.T.);
#603=FACE_BOUND('',#565,.T.);
#604=FACE_BOUND('',#566,.T.);
#605=FACE_BOUND('',#567,.T.);
#606=FACE_BOUND('',#568,.T.);
#607=FACE_BOUND('',#569,.T.);
#608=FACE_BOUND('',#570,.T.);
#609=FACE_BOUND('',#571,.T.);
#610=FACE_BOUND('',#572,.T.);
#611=FACE_BOUND('',#573,.T.);
#612=FACE_BOUND('',#574,.T.);
#613=FACE_BOUND('',#575,.T.);
#614=FACE_BOUND('',#576,.T.);
#615=FACE_BOUND('',#577,.T.);
#616=PLANE('',#705);
#617=PLANE('',#706);
#618=PLANE('',#707);
#619=PLANE('',#708);
#620=PLANE('',#709);
#621=PLANE('',#710);
#622=PLANE('',#711);
#623=PLANE('',#712);
#624=PLANE('',#713);
#625=PLANE('',#714);
#626=PLANE('',#715);
#627=PLANE('',#716);
#628=PLANE('',#717);
#629=PLANE('',#718);
#630=PLANE('',#719);
#631=PLANE('',#720);
#632=PLANE('',#721);
#633=PLANE('',#722);
#634=PLANE('',#723);
#635=PLANE('',#724);
#636=PLANE('',#725);
#637=PLANE('',#726);
#638=PLANE('',#727);
#639=PLANE('',#728);
#640=PLANE('',#729);
#641=PLANE('',#730);
#642=PLANE('',#731);
#643=PLANE('',#732);
#644=PLANE('',#733);
#645=PLANE('',#734);
#646=PLANE('',#735);
#647=PLANE('',#736);
#648=PLANE('',#737);
#649=PLANE('',#738);
#650=PLANE('',#739);
#651=PLANE('',#740);
#652=PLANE('',#741);
#653=PLANE('',#742);
#654=ADVANCED_FACE('',(#578),#616,.F.);
#655=ADVANCED_FACE('',(#579),#617,.F.);
#656=ADVANCED_FACE('',(#580),#618,.T.);
#657=ADVANCED_FACE('',(#581),#619,.F.);
#658=ADVANCED_FACE('',(#582),#620,.T.);
#659=ADVANCED_FACE('',(#583),#621,.T.);
#660=ADVANCED_FACE('',(#584),#622,.T.);
#661=ADVANCED_FACE('',(#585),#623,.T.);
#662=ADVANCED_FACE('',(#586),#624,.T.);
#663=ADVANCED_FACE('',(#587),#625,.T.);
#664=ADVANCED_FACE('',(#588),#626,.T.);
#665=ADVANCED_FACE('',(#589),#627,.T.);
#666=ADVANCED_FACE('',(#590),#628,.T.);
#667=ADVANCED_FACE('',(#591),#629,.T.);
#668=ADVANCED_FACE('',(#592),#630,.T.);
#669=ADVANCED_FACE('',(#593),#631,.T.);
#670=ADVANCED_FACE('',(#594),#632,.T.);
#671=ADVANCED_FACE('',(#595),#633,.T.);
#672=ADVANCED_FACE('',(#596),#634,.T.);
#673=ADVANCED_FACE('',(#597),#635,.T.);
#674=ADVANCED_FACE('',(#598),#636,.T.);
#675=ADVANCED_FACE('',(#599),#637,.T.);
#676=ADVANCED_FACE('',(#600),#638,.T.);
#677=ADVANCED_FACE('',(#601),#639,.T.);
#678=ADVANCED_FACE('',(#602),#640,.F.);
#679=ADVANCED_FACE('',(#603),#641,.T.);
#680=ADVANCED_FACE('',(#604),#642,.F.);
#681=ADVANCED_FACE('',(#605),#643,.F.);
#682=ADVANCED_FACE('',(#606),#644,.F.);
#683=ADVANCED_FACE('',(#607),#645,.F.);
#684=ADVANCED_FACE('',(#608),#646,.F.);
#685=ADVANCED_FACE('',(#609),#647,.F.);
#686=ADVANCED_FACE('',(#610),#648,.F.);
#687=ADVANCED_FACE('',(#611),#649,.T.);
#688=ADVANCED_FACE('',(#612),#650,.F.);
#689=ADVANCED_FACE('',(#613),#651,.F.);
#690=ADVANCED_FACE('',(#614),#652,.F.);
#691=ADVANCED_FACE('',(#615),#653,.T.);
#692=CLOSED_SHELL('',(#654,#655,#656,#657,#658,#659,#660,#661,#662,#663,
#664,#665,#666,#667,#668,#669,#670,#671,#672,#673,#674,#675,#676,#677,#678,
#679,#680,#681,#682,#683,#684,#685,#686,#687,#688,#689,#690,#691));
#693=STYLED_ITEM('',(#694),#701);
#694=PRESENTATION_STYLE_ASSIGNMENT((#695));
#695=SURFACE_STYLE_USAGE(.BOTH.,#696);
#696=SURFACE_SIDE_STYLE('',(#697));
#697=SURFACE_STYLE_FILL_AREA(#698);
#698=FILL_AREA_STYLE('',(#699));
#699=FILL_AREA_STYLE_COLOUR('',#700);
#700=COLOUR_RGB('',0.768627450980392,0.886274509803922,0.952941176470588);
#701=MANIFOLD_SOLID_BREP('BatteryCap',#692);
#702=SHAPE_DEFINITION_REPRESENTATION(#1112,#703);
#703=SHAPE_REPRESENTATION('BatteryCap',(#704),#1107);
#704=AXIS2_PLACEMENT_3D('',#915,#743,#744);
#705=AXIS2_PLACEMENT_3D('',#916,#745,#746);
#706=AXIS2_PLACEMENT_3D('',#949,#763,#764);
#707=AXIS2_PLACEMENT_3D('',#963,#772,#773);
#708=AXIS2_PLACEMENT_3D('',#977,#781,#782);
#709=AXIS2_PLACEMENT_3D('',#982,#786,#787);
#710=AXIS2_PLACEMENT_3D('',#1003,#799,#800);
#711=AXIS2_PLACEMENT_3D('',#1007,#803,#804);
#712=AXIS2_PLACEMENT_3D('',#1020,#812,#813);
#713=AXIS2_PLACEMENT_3D('',#1024,#816,#817);
#714=AXIS2_PLACEMENT_3D('',#1035,#824,#825);
#715=AXIS2_PLACEMENT_3D('',#1041,#829,#830);
#716=AXIS2_PLACEMENT_3D('',#1043,#832,#833);
#717=AXIS2_PLACEMENT_3D('',#1047,#836,#837);
#718=AXIS2_PLACEMENT_3D('',#1049,#839,#840);
#719=AXIS2_PLACEMENT_3D('',#1051,#842,#843);
#720=AXIS2_PLACEMENT_3D('',#1054,#846,#847);
#721=AXIS2_PLACEMENT_3D('',#1057,#850,#851);
#722=AXIS2_PLACEMENT_3D('',#1058,#852,#853);
#723=AXIS2_PLACEMENT_3D('',#1060,#855,#856);
#724=AXIS2_PLACEMENT_3D('',#1062,#858,#859);
#725=AXIS2_PLACEMENT_3D('',#1063,#860,#861);
#726=AXIS2_PLACEMENT_3D('',#1065,#863,#864);
#727=AXIS2_PLACEMENT_3D('',#1066,#865,#866);
#728=AXIS2_PLACEMENT_3D('',#1068,#868,#869);
#729=AXIS2_PLACEMENT_3D('',#1070,#871,#872);
#730=AXIS2_PLACEMENT_3D('',#1071,#873,#874);
#731=AXIS2_PLACEMENT_3D('',#1079,#879,#880);
#732=AXIS2_PLACEMENT_3D('',#1087,#885,#886);
#733=AXIS2_PLACEMENT_3D('',#1089,#888,#889);
#734=AXIS2_PLACEMENT_3D('',#1091,#891,#892);
#735=AXIS2_PLACEMENT_3D('',#1093,#894,#895);
#736=AXIS2_PLACEMENT_3D('',#1094,#896,#897);
#737=AXIS2_PLACEMENT_3D('',#1097,#900,#901);
#738=AXIS2_PLACEMENT_3D('',#1099,#903,#904);
#739=AXIS2_PLACEMENT_3D('',#1100,#905,#906);
#740=AXIS2_PLACEMENT_3D('',#1101,#907,#908);
#741=AXIS2_PLACEMENT_3D('',#1103,#910,#911);
#742=AXIS2_PLACEMENT_3D('',#1105,#913,#914);
#743=DIRECTION('',(0.,0.,1.));
#744=DIRECTION('',(1.,0.,0.));
#745=DIRECTION('',(-1.,0.,0.));
#746=DIRECTION('',(0.,0.,1.));
#747=DIRECTION('',(1.19801345026023E-16,1.,0.));
#748=DIRECTION('',(0.,0.,1.));
#749=DIRECTION('',(0.,-0.707106781186548,-0.707106781186547));
#750=DIRECTION('',(1.29456975819168E-16,1.,0.));
#751=DIRECTION('',(0.,-0.775391983503008,0.631480222904305));
#752=DIRECTION('',(0.,0.,-1.));
#753=DIRECTION('',(0.,0.707106781187001,0.707106781186095));
#754=DIRECTION('',(0.,1.,0.));
#755=DIRECTION('',(0.,0.,-1.));
#756=DIRECTION('',(0.,-0.707106781186546,-0.70710678118655));
#757=DIRECTION('',(0.,1.,0.));
#758=DIRECTION('',(0.,0.,-1.));
#759=DIRECTION('',(0.,-0.707617983353874,0.706595209178633));
#760=DIRECTION('',(0.,1.,0.));
#761=DIRECTION('',(0.,0.707106781186548,0.707106781186548));
#762=DIRECTION('',(0.,0.,-1.));
#763=DIRECTION('',(-1.19801345026023E-16,-1.,0.));
#764=DIRECTION('',(1.,-1.19801345026023E-16,0.));
#765=DIRECTION('',(-1.,1.19801345026023E-16,0.));
#766=DIRECTION('',(-1.,1.19801345026023E-16,0.));
#767=DIRECTION('',(0.,0.,1.));
#768=DIRECTION('',(-1.,1.19801345026023E-16,0.));
#769=DIRECTION('',(0.,0.,-1.));
#770=DIRECTION('',(-1.,1.19801345026023E-16,0.));
#771=DIRECTION('',(0.,0.,1.));
#772=DIRECTION('',(0.,-1.,0.));
#773=DIRECTION('',(0.,0.,-1.));
#774=DIRECTION('',(1.,0.,0.));
#775=DIRECTION('',(0.,0.,-1.));
#776=DIRECTION('',(1.,0.,0.));
#777=DIRECTION('',(0.,0.,1.));
#778=DIRECTION('',(1.,0.,0.));
#779=DIRECTION('',(0.,0.,1.));
#780=DIRECTION('',(1.,0.,0.));
#781=DIRECTION('',(-1.,0.,0.));
#782=DIRECTION('',(0.,0.,1.));
#783=DIRECTION('',(1.19801345026023E-16,1.,0.));
#784=DIRECTION('',(0.,-1.,0.));
#785=DIRECTION('',(0.,0.631480222904304,-0.775391983503009));
#786=DIRECTION('',(0.,0.,1.));
#787=DIRECTION('',(1.,0.,0.));
#788=DIRECTION('',(1.,0.,0.));
#789=DIRECTION('',(0.,1.,0.));
#790=DIRECTION('',(-0.307292390956971,0.951615146190911,0.));
#791=DIRECTION('',(-0.814401278758973,0.580302125754981,0.));
#792=DIRECTION('',(-0.814401278758973,0.580302125754981,0.));
#793=DIRECTION('',(-0.307292390956971,0.951615146190911,0.));
#794=DIRECTION('',(0.,1.,0.));
#795=DIRECTION('',(-1.,0.,0.));
#796=DIRECTION('',(0.,1.,0.));
#797=DIRECTION('',(-1.,0.,0.));
#798=DIRECTION('',(0.,1.,0.));
#799=DIRECTION('',(-1.,0.,0.));
#800=DIRECTION('',(0.,0.,1.));
#801=DIRECTION('',(0.,-1.,0.));
#802=DIRECTION('',(0.,0.,-1.));
#803=DIRECTION('',(1.,0.,0.));
#804=DIRECTION('',(0.,0.,-1.));
#805=DIRECTION('',(0.,0.,1.));
#806=DIRECTION('',(0.,1.,0.));
#807=DIRECTION('',(0.,1.,0.));
#808=DIRECTION('',(0.,0.,1.));
#809=DIRECTION('',(0.,0.,1.));
#810=DIRECTION('',(0.,0.,1.));
#811=DIRECTION('',(0.,0.,1.));
#812=DIRECTION('',(-0.951615146190911,-0.307292390956971,0.));
#813=DIRECTION('',(0.307292390956971,-0.951615146190911,0.));
#814=DIRECTION('',(0.307292390956971,-0.951615146190911,0.));
#815=DIRECTION('',(0.,0.,-1.));
#816=DIRECTION('',(0.,0.,1.));
#817=DIRECTION('',(1.,0.,0.));
#818=DIRECTION('',(0.,1.,0.));
#819=DIRECTION('',(-1.,0.,0.));
#820=DIRECTION('',(-0.307292390956971,0.951615146190911,0.));
#821=DIRECTION('',(-0.814401278758973,0.580302125754981,0.));
#822=DIRECTION('',(-0.814401278758973,0.580302125754981,0.));
#823=DIRECTION('',(-0.307292390956971,0.951615146190911,0.));
#824=DIRECTION('',(0.580302125754981,0.814401278758973,0.));
#825=DIRECTION('',(-0.814401278758973,0.580302125754981,0.));
#826=DIRECTION('',(-0.814401278758973,0.580302125754981,0.));
#827=DIRECTION('',(0.,0.,1.));
#828=DIRECTION('',(-0.814401278758973,0.580302125754981,0.));
#829=DIRECTION('',(-0.580302125754981,-0.814401278758973,0.));
#830=DIRECTION('',(0.814401278758973,-0.580302125754981,0.));
#831=DIRECTION('',(0.814401278758973,-0.580302125754981,0.));
#832=DIRECTION('',(0.449961616320168,0.631480222904307,-0.631480222904304));
#833=DIRECTION('',(0.,0.707106781186546,0.70710678118655));
#834=DIRECTION('',(-0.814401278758973,0.580302125754981,0.));
#835=DIRECTION('',(0.525335235532983,0.384658635924627,0.758986577032895));
#836=DIRECTION('',(0.580302125754981,0.814401278758973,0.));
#837=DIRECTION('',(-0.814401278758973,0.580302125754981,0.));
#838=DIRECTION('',(0.,0.,1.));
#839=DIRECTION('',(0.449961616319937,0.631480222903983,-0.631480222904792));
#840=DIRECTION('',(0.,0.707106781187001,0.707106781186094));
#841=DIRECTION('',(0.525335235533373,0.384658635924912,0.758986577032481));
#842=DIRECTION('',(0.951615146190911,0.307292390956971,0.));
#843=DIRECTION('',(-0.307292390956971,0.951615146190911,0.));
#844=DIRECTION('',(-0.307292390956971,0.951615146190911,0.));
#845=DIRECTION('',(-0.307292390956971,0.951615146190911,0.));
#846=DIRECTION('',(0.737874755736476,0.238272056539508,-0.631480222904304));
#847=DIRECTION('',(-0.650207198790401,0.,-0.759756933921067));
#848=DIRECTION('',(-0.307292390956971,0.951615146190911,0.));
#849=DIRECTION('',(0.628381670559373,0.0989421025741703,0.771587283749035));
#850=DIRECTION('',(0.951615146190911,0.307292390956971,0.));
#851=DIRECTION('',(-0.307292390956971,0.951615146190911,0.));
#852=DIRECTION('',(0.737874755736098,0.238272056539386,-0.631480222904792));
#853=DIRECTION('',(-0.650207198790884,0.,-0.759756933920653));
#854=DIRECTION('',(0.628381670559855,0.0989421025742461,0.771587283748633));
#855=DIRECTION('',(-0.775391983503009,0.,0.631480222904304));
#856=DIRECTION('',(0.631480222904304,0.,0.775391983503009));
#857=DIRECTION('',(0.631480222904304,0.,0.775391983503009));
#858=DIRECTION('',(0.,1.,0.));
#859=DIRECTION('',(-1.,0.,0.));
#860=DIRECTION('',(-0.775391983502611,0.,0.631480222904792));
#861=DIRECTION('',(0.631480222904792,0.,0.775391983502611));
#862=DIRECTION('',(0.631480222904792,0.,0.775391983502611));
#863=DIRECTION('',(0.,1.,0.));
#864=DIRECTION('',(-1.,0.,0.));
#865=DIRECTION('',(0.,-0.775391983503009,-0.631480222904304));
#866=DIRECTION('',(0.,0.631480222904304,-0.775391983503009));
#867=DIRECTION('',(0.533933318431298,-0.533933318431298,0.655614538382032));
#868=DIRECTION('',(0.775391983503009,0.,-0.631480222904304));
#869=DIRECTION('',(-0.631480222904304,0.,-0.775391983503009));
#870=DIRECTION('',(0.631480222904304,0.,0.775391983503009));
#871=DIRECTION('',(0.,1.,0.));
#872=DIRECTION('',(-1.,0.,0.));
#873=DIRECTION('',(0.,0.,-1.));
#874=DIRECTION('',(1.,0.,0.));
#875=DIRECTION('',(-0.814401278758973,0.580302125754981,0.));
#876=DIRECTION('',(-0.307292390956971,0.951615146190911,0.));
#877=DIRECTION('',(0.,1.,0.));
#878=DIRECTION('',(1.,-1.19801345026023E-16,0.));
#879=DIRECTION('',(0.,0.,-1.));
#880=DIRECTION('',(1.,0.,0.));
#881=DIRECTION('',(-1.,0.,0.));
#882=DIRECTION('',(0.,-1.,0.));
#883=DIRECTION('',(0.307292390956971,-0.951615146190911,0.));
#884=DIRECTION('',(0.814401278758973,-0.580302125754981,0.));
#885=DIRECTION('',(-0.410335568258315,-0.575868666817465,-0.707106781186548));
#886=DIRECTION('',(-0.814401278758973,0.580302125754981,0.));
#887=DIRECTION('',(-0.585148337493412,-0.428454720128223,0.688496896092162));
#888=DIRECTION('',(-0.67289352295142,-0.217288533452701,-0.707106781186548));
#889=DIRECTION('',(-0.307292390956971,0.951615146190911,0.));
#890=DIRECTION('',(-0.702764425891879,-0.110654070877296,0.702764425891877));
#891=DIRECTION('',(-0.707106781186547,0.,-0.707106781186549));
#892=DIRECTION('',(0.,-1.,0.));
#893=DIRECTION('',(-0.577350269189626,0.577350269189626,0.577350269189625));
#894=DIRECTION('',(0.,0.707106781186547,-0.707106781186548));
#895=DIRECTION('',(-1.,0.,0.));
#896=DIRECTION('',(0.672893522951422,0.217288533452702,0.707106781186547));
#897=DIRECTION('',(-0.307292390956971,0.951615146190911,0.));
#898=DIRECTION('',(-0.668043769241872,-0.232030029656909,0.707021631716121));
#899=DIRECTION('',(0.702764425891879,0.110654070877292,-0.702764425891879));
#900=DIRECTION('',(0.707106781186548,0.,0.707106781186548));
#901=DIRECTION('',(0.,1.,0.));
#902=DIRECTION('',(-0.577350269189626,0.577350269189626,0.577350269189626));
#903=DIRECTION('',(8.47123434631699E-17,0.707106781186548,-0.707106781186547));
#904=DIRECTION('',(1.,-1.19801345026023E-16,0.));
#905=DIRECTION('',(0.44970193413714,0.631115782567899,0.632029302664856));
#906=DIRECTION('',(-0.814401278758973,0.580302125754981,0.));
#907=DIRECTION('',(0.,0.,-1.));
#908=DIRECTION('',(-1.,0.,0.));
#909=DIRECTION('',(1.19801345026023E-16,1.,0.));
#910=DIRECTION('',(-1.,1.19801345026023E-16,0.));
#911=DIRECTION('',(-1.19801345026023E-16,-1.,0.));
#912=DIRECTION('',(1.19801345026023E-16,1.,0.));
#913=DIRECTION('',(0.,0.,-1.));
#914=DIRECTION('',(-1.,0.,0.));
#915=CARTESIAN_POINT('',(0.,0.,0.));
#916=CARTESIAN_POINT('',(0.0312,0.0046,0.0002));
#917=CARTESIAN_POINT('',(0.0312,-0.0194,-0.0294));
#918=CARTESIAN_POINT('',(0.0312,0.00359999999999762,-0.0294));
#919=CARTESIAN_POINT('',(0.0312,0.0056,-0.0294));
#920=CARTESIAN_POINT('',(0.0312,0.00359999999999762,0.0002));
#921=CARTESIAN_POINT('',(0.0312,0.00359999999999762,-0.0354));
#922=CARTESIAN_POINT('',(0.0312,0.0218999999999988,-0.0170999999999988));
#923=CARTESIAN_POINT('',(0.0312,0.000599999999997609,-0.0384));
#924=CARTESIAN_POINT('',(0.0312,-0.0500000000000012,-0.0384));
#925=CARTESIAN_POINT('',(0.0312,-0.0999163122673732,-0.0384));
#926=CARTESIAN_POINT('',(0.0312,-0.0559779702335377,-0.0741834419389047));
#927=CARTESIAN_POINT('',(0.0312,-0.1036,-0.0354));
#928=CARTESIAN_POINT('',(0.0312,-0.1036,0.0002));
#929=CARTESIAN_POINT('',(0.0312,-0.1036,-0.0012));
#930=CARTESIAN_POINT('',(0.0312,-0.1032,-0.000799999999999585));
#931=CARTESIAN_POINT('',(0.0312,-0.102799999999998,-0.00039999999999917));
#932=CARTESIAN_POINT('',(0.0312,-0.1032,-0.0004));
#933=CARTESIAN_POINT('',(0.0312,-0.1036,-0.0004));
#934=CARTESIAN_POINT('',(0.0312,-0.1036,0.0002));
#935=CARTESIAN_POINT('',(0.0312,-0.1036,0.0002));
#936=CARTESIAN_POINT('',(0.0312,-0.1032,0.0006));
#937=CARTESIAN_POINT('',(0.0312,-0.1028,0.001));
#938=CARTESIAN_POINT('',(0.0312,-0.1032,0.001));
#939=CARTESIAN_POINT('',(0.0312,-0.1056,0.001));
#940=CARTESIAN_POINT('',(0.0312,-0.1056,0.0002));
#941=CARTESIAN_POINT('',(0.0312,-0.1056,-0.0362));
#942=CARTESIAN_POINT('',(0.0312,-0.0960461234833691,-0.04574006757112));
#943=CARTESIAN_POINT('',(0.0312,-0.102595657595062,-0.0392));
#944=CARTESIAN_POINT('',(0.0312,-0.1046,-0.0392));
#945=CARTESIAN_POINT('',(0.0312,0.0026,-0.0392));
#946=CARTESIAN_POINT('',(0.0312,0.0056,-0.0362));
#947=CARTESIAN_POINT('',(0.0312,0.0056,-0.0362));
#948=CARTESIAN_POINT('',(0.0312,0.0056,0.0002));
#949=CARTESIAN_POINT('',(0.0493,0.0056,0.0002));
#950=CARTESIAN_POINT('',(0.0252,0.0056,-0.0294));
#951=CARTESIAN_POINT('',(0.0192,0.0056,-0.0294));
#952=CARTESIAN_POINT('',(-0.00442880255751554,0.0056,-0.0362));
#953=CARTESIAN_POINT('',(-0.00442880255751554,0.0056,-0.0362));
#954=CARTESIAN_POINT('',(-0.00442880255751554,0.0056,0.0002));
#955=CARTESIAN_POINT('',(-0.00442880255751554,0.0056,0.001));
#956=CARTESIAN_POINT('',(-0.00457562238811614,0.0056,0.001));
#957=CARTESIAN_POINT('',(0.0312,0.0056,0.001));
#958=CARTESIAN_POINT('',(0.0312,0.0056,0.0002));
#959=CARTESIAN_POINT('',(0.0312,0.0056,-0.0234));
#960=CARTESIAN_POINT('',(0.0252,0.0056,-0.0234));
#961=CARTESIAN_POINT('',(0.0192,0.0056,-0.0234));
#962=CARTESIAN_POINT('',(0.0192,0.0056,-0.0264));
#963=CARTESIAN_POINT('',(-0.00341501813660615,0.00359999999999762,0.0002));
#964=CARTESIAN_POINT('',(-0.00341501813660615,0.00359999999999762,-0.0294));
#965=CARTESIAN_POINT('',(0.0192,0.00359999999999762,-0.0294));
#966=CARTESIAN_POINT('',(0.0192,0.00359999999999762,0.0002));
#967=CARTESIAN_POINT('',(0.0192,0.00359999999999762,-0.0234));
#968=CARTESIAN_POINT('',(-0.00341501813660615,0.00359999999999762,-0.0234));
#969=CARTESIAN_POINT('',(0.0312,0.00359999999999762,-0.0234));
#970=CARTESIAN_POINT('',(0.0312,0.00359999999999762,0.0002));
#971=CARTESIAN_POINT('',(0.0312,0.00359999999999762,0.0002));
#972=CARTESIAN_POINT('',(-0.00341501813660615,0.00359999999999762,0.0002));
#973=CARTESIAN_POINT('',(-0.00279999999999761,0.00359999999999762,0.000199999999999996));
#974=CARTESIAN_POINT('',(-0.00279999999999761,0.00359999999999762,0.0002));
#975=CARTESIAN_POINT('',(-0.00279999999999761,0.00359999999999762,-0.0354));
#976=CARTESIAN_POINT('',(-0.00341501813660615,0.00359999999999762,-0.0354));
#977=CARTESIAN_POINT('',(0.0312,0.0046,0.0002));
#978=CARTESIAN_POINT('',(0.0312,-0.0194,-0.0234));
#979=CARTESIAN_POINT('',(0.0312,-0.1032,0.001));
#980=CARTESIAN_POINT('',(0.0312,0.00294847897699043,0.001));
#981=CARTESIAN_POINT('',(0.0312,0.00327423948849401,0.0006));
#982=CARTESIAN_POINT('',(0.0312,-0.1032,0.001));
#983=CARTESIAN_POINT('',(-0.00295077643600221,0.00294847897699043,0.001));
#984=CARTESIAN_POINT('',(-0.00214847897699042,0.00294847897699042,0.001));
#985=CARTESIAN_POINT('',(-0.00442880255751553,-0.058858426051079,0.001));
#986=CARTESIAN_POINT('',(-0.0044288025575192,-0.0574564637977833,0.001));
#987=CARTESIAN_POINT('',(0.00542140274901692,-0.0879603253922803,0.001));
#988=CARTESIAN_POINT('',(0.00511569294786335,-0.0870136111693436,0.001));
#989=CARTESIAN_POINT('',(0.0312,-0.1056,0.001));
#990=CARTESIAN_POINT('',(0.0312,-0.1028,0.001));
#991=CARTESIAN_POINT('',(0.00705372282085888,-0.0855945555322868,0.001));
#992=CARTESIAN_POINT('',(0.00709209040889908,-0.0857133712888066,0.001));
#993=CARTESIAN_POINT('',(-0.00214847897699042,-0.05709741448082,0.001));
#994=CARTESIAN_POINT('',(-0.00214847897699042,-0.0572,0.001));
#995=CARTESIAN_POINT('',(-0.00214847897699042,-0.0572,0.001));
#996=CARTESIAN_POINT('',(0.0312,-0.0572,0.001));
#997=CARTESIAN_POINT('',(-0.00279999999999761,-0.0571999999999878,0.001));
#998=CARTESIAN_POINT('',(-0.00279999999999761,-0.1032,0.001));
#999=CARTESIAN_POINT('',(-0.00279999999999761,-0.0556,0.001));
#1000=CARTESIAN_POINT('',(0.0312,-0.0556,0.001));
#1001=CARTESIAN_POINT('',(-0.00214847897699042,-0.0556,0.001));
#1002=CARTESIAN_POINT('',(-0.00214847897699042,-0.057233580098965,0.001));
#1003=CARTESIAN_POINT('',(-0.00442880255751554,-0.0588584260510789,0.0002));
#1004=CARTESIAN_POINT('',(-0.00442880255751554,-0.0588584260510789,-0.0362));
#1005=CARTESIAN_POINT('',(-0.00442880255752289,-0.0574564637977839,-0.0362));
#1006=CARTESIAN_POINT('',(-0.00442880255752289,-0.0574564637977839,0.0002));
#1007=CARTESIAN_POINT('',(-0.00279999999999761,-0.057697821799569,0.0002));
#1008=CARTESIAN_POINT('',(-0.00280000000000493,-0.0571999999999529,0.0002));
#1009=CARTESIAN_POINT('',(-0.00280000000000493,-0.0571999999999529,-0.0354));
#1010=CARTESIAN_POINT('',(-0.00279999999999761,-0.0571999999999756,-0.0012));
#1011=CARTESIAN_POINT('',(-0.00279999999999761,-0.057697821799569,-0.0354));
#1012=CARTESIAN_POINT('',(-0.00279999999999761,-0.057697821799569,0.0002));
#1013=CARTESIAN_POINT('',(-0.00279999999999761,-0.0556,0.000199999999999994));
#1014=CARTESIAN_POINT('',(-0.00279999999999761,-0.0556,0.0002));
#1015=CARTESIAN_POINT('',(-0.00279999999999761,-0.0572,0.0002));
#1016=CARTESIAN_POINT('',(-0.00279999999999761,-0.0571999999999756,0.000199999999999993));
#1017=CARTESIAN_POINT('',(-0.00280000000000493,-0.0571999999999529,0.0002));
#1018=CARTESIAN_POINT('',(-0.00279999999999761,-0.0572,-0.0004));
#1019=CARTESIAN_POINT('',(-0.00279999999999761,-0.0572,0.0002));
#1020=CARTESIAN_POINT('',(0.0054214027490169,-0.0879603253922803,0.0002));
#1021=CARTESIAN_POINT('',(0.0054214027490169,-0.0879603253922803,-0.0362));
#1022=CARTESIAN_POINT('',(0.00511569294786544,-0.087013611169342,-0.0362));
#1023=CARTESIAN_POINT('',(0.00511569294786544,-0.087013611169342,0.0002));
#1024=CARTESIAN_POINT('',(0.0312,-0.1032,-0.0004));
#1025=CARTESIAN_POINT('',(-0.00214847897698889,-0.0572,-0.00039999999999917));
#1026=CARTESIAN_POINT('',(-0.00214847897698889,-0.0572,-0.00039999999999917));
#1027=CARTESIAN_POINT('',(-0.00214847897698889,-0.0570974144808197,-0.00039999999999917));
#1028=CARTESIAN_POINT('',(0.0312,-0.0572,-0.0004));
#1029=CARTESIAN_POINT('',(0.00661475107750414,-0.0863553581755134,-0.0004));
#1030=CARTESIAN_POINT('',(0.00650000000000299,-0.0860000000000173,-0.0004));
#1031=CARTESIAN_POINT('',(0.0312,-0.1036,-0.0004));
#1032=CARTESIAN_POINT('',(0.0312,-0.102799999999998,-0.00039999999999917));
#1033=CARTESIAN_POINT('',(0.00705372282086017,-0.0855945555322858,-0.000399999999999586));
#1034=CARTESIAN_POINT('',(0.00709209040890019,-0.0857133712888051,-0.00039999999999917));
#1035=CARTESIAN_POINT('',(0.0312,-0.1036,0.0002));
#1036=CARTESIAN_POINT('',(0.0312,-0.1036,-0.0354));
#1037=CARTESIAN_POINT('',(0.00650000000000509,-0.0860000000000158,-0.0354));
#1038=CARTESIAN_POINT('',(0.00650000000000509,-0.0860000000000158,0.0002));
#1039=CARTESIAN_POINT('',(0.006500000000003,-0.0860000000000173,-0.0012));
#1040=CARTESIAN_POINT('',(0.0312,-0.1036,-0.0012));
#1041=CARTESIAN_POINT('',(0.0312,-0.1056,0.0002));
#1042=CARTESIAN_POINT('',(0.0312,-0.1056,-0.0362));
#1043=CARTESIAN_POINT('',(0.0312,-0.1032,0.0006));
#1044=CARTESIAN_POINT('',(0.0312,-0.1036,0.0002));
#1045=CARTESIAN_POINT('',(0.006500000000003,-0.0860000000000173,0.000199999999999993));
#1046=CARTESIAN_POINT('',(0.0100004381225202,-0.0834369247248933,0.00525731458509107));
#1047=CARTESIAN_POINT('',(0.0312,-0.1036,0.0002));
#1048=CARTESIAN_POINT('',(0.00650000000000509,-0.0860000000000158,0.0002));
#1049=CARTESIAN_POINT('',(0.0312,-0.1032,-0.000799999999999585));
#1050=CARTESIAN_POINT('',(0.0100004381225256,-0.0834369247248894,0.00385731458509227));
#1051=CARTESIAN_POINT('',(0.00661475107750414,-0.0863553581755134,0.0002));
#1052=CARTESIAN_POINT('',(0.00661475107750414,-0.0863553581755134,-0.0354));
#1053=CARTESIAN_POINT('',(0.00661475107750416,-0.0863553581755134,-0.0012));
#1054=CARTESIAN_POINT('',(0.00685342074320162,-0.08603436473216,0.0006));
#1055=CARTESIAN_POINT('',(0.00661475107750414,-0.0863553581755134,0.0002));
#1056=CARTESIAN_POINT('',(-0.000587006344213623,-0.0568515521448581,0.00291732586073978));
#1057=CARTESIAN_POINT('',(0.00661475107750414,-0.0863553581755134,0.0002));
#1058=CARTESIAN_POINT('',(0.00685342074320218,-0.0860343647321592,-0.000799999999999585));
#1059=CARTESIAN_POINT('',(-0.000587006344210017,-0.0568515521448576,0.00151732586074071));
#1060=CARTESIAN_POINT('',(-0.002474239488494,-0.0572,0.0006));
#1061=CARTESIAN_POINT('',(-0.002474239488494,-0.0572,0.0006));
#1062=CARTESIAN_POINT('',(0.0032,-0.0572,-0.0004));
#1063=CARTESIAN_POINT('',(-0.00247423948849324,-0.0572,-0.000799999999999585));
#1064=CARTESIAN_POINT('',(-0.00247423948849324,-0.0572,-0.000799999999999585));
#1065=CARTESIAN_POINT('',(0.0032,-0.0572,-0.0004));
#1066=CARTESIAN_POINT('',(-0.00318289728630419,0.00327423948849401,0.0006));
#1067=CARTESIAN_POINT('',(0.0148417935865941,-0.0140417935865941,0.0218622862054874));
#1068=CARTESIAN_POINT('',(-0.002474239488494,-0.057465700949267,0.0006));
#1069=CARTESIAN_POINT('',(-0.002474239488494,-0.0556,0.0006));
#1070=CARTESIAN_POINT('',(0.0032,-0.0556,-0.0004));
#1071=CARTESIAN_POINT('',(0.041,-0.05,-0.0392));
#1072=CARTESIAN_POINT('',(0.0128432002286056,-0.0895155087701095,-0.0392));
#1073=CARTESIAN_POINT('',(0.00795030396656415,-0.0860290725671998,-0.0392));
#1074=CARTESIAN_POINT('',(0.000535372054231861,-0.0630667027741326,-0.0392));
#1075=CARTESIAN_POINT('',(-0.00142880255751554,-0.0569840975248403,-0.0392));
#1076=CARTESIAN_POINT('',(-0.00142880255751554,-0.05,-0.0392));
#1077=CARTESIAN_POINT('',(-0.00142880255751554,0.0026,-0.0392));
#1078=CARTESIAN_POINT('',(0.0312,0.0026,-0.0392));
#1079=CARTESIAN_POINT('',(0.0133855987212387,-0.05,-0.0384));
#1080=CARTESIAN_POINT('',(0.0133855987212387,0.000599999999997609,-0.0384));
#1081=CARTESIAN_POINT('',(0.000200000000002402,0.000599999999997609,-0.0384));
#1082=CARTESIAN_POINT('',(0.000200000000002402,-0.05,-0.0384));
#1083=CARTESIAN_POINT('',(0.000200000000002402,-0.0567276337270092,-0.0384));
#1084=CARTESIAN_POINT('',(-0.000522224388371644,-0.0544910678791375,-0.0384));
#1085=CARTESIAN_POINT('',(0.00904967745307617,-0.0841330864849606,-0.0384));
#1086=CARTESIAN_POINT('',(-0.00420578066536082,-0.0746879017528015,-0.0384));
#1087=CARTESIAN_POINT('',(0.0312,-0.1036,-0.0354));
#1088=CARTESIAN_POINT('',(0.00645019891125877,-0.0860364651323045,-0.0353414030719696));
#1089=CARTESIAN_POINT('',(0.00661475107750414,-0.0863553581755134,-0.0354));
#1090=CARTESIAN_POINT('',(0.000723165990862662,-0.0566452584039274,-0.0389231659908603));
#1091=CARTESIAN_POINT('',(0.000200000000002402,-0.05,-0.0384));
#1092=CARTESIAN_POINT('',(0.00459519957374783,-0.00379519957374782,-0.0427951995737454));
#1093=CARTESIAN_POINT('',(0.0133855987212387,0.000599999999997609,-0.0384));
#1094=CARTESIAN_POINT('',(0.000535372054231861,-0.0630667027741326,-0.0392));
#1095=CARTESIAN_POINT('',(0.008200459823909,-0.0859421865371655,-0.0394647515186677));
#1096=CARTESIAN_POINT('',(-0.00093174640728774,-0.0569058333377942,-0.0396970561502278));
#1097=CARTESIAN_POINT('',(-0.00142880255751554,-0.05,-0.0392));
#1098=CARTESIAN_POINT('',(0.0161045307758178,-0.0149333333333333,-0.0567333333333333));
#1099=CARTESIAN_POINT('',(0.0493,0.0056,-0.0362));
#1100=CARTESIAN_POINT('',(0.0128432002286056,-0.0895155087701095,-0.0392));
#1101=CARTESIAN_POINT('',(0.0252,-0.0194,-0.0294));
#1102=CARTESIAN_POINT('',(0.0192,-0.0194,-0.0294));
#1103=CARTESIAN_POINT('',(0.0192,-0.0194,-0.0264));
#1104=CARTESIAN_POINT('',(0.0192,-0.0194,-0.0234));
#1105=CARTESIAN_POINT('',(0.0252,-0.0194,-0.0234));
#1106=MECHANICAL_DESIGN_GEOMETRIC_PRESENTATION_REPRESENTATION('',(#693),
#1107);
#1107=(
GEOMETRIC_REPRESENTATION_CONTEXT(3)
GLOBAL_UNCERTAINTY_ASSIGNED_CONTEXT((#1108))
GLOBAL_UNIT_ASSIGNED_CONTEXT((#1111,#1110,#1109))
REPRESENTATION_CONTEXT('BatteryCap','TOP_LEVEL_ASSEMBLY_PART')
);
#1108=UNCERTAINTY_MEASURE_WITH_UNIT(LENGTH_MEASURE(1.E-8),#1111,
'DISTANCE_ACCURACY_VALUE','Maximum Tolerance applied to model');
#1109=(
NAMED_UNIT(*)
SI_UNIT($,.STERADIAN.)
SOLID_ANGLE_UNIT()
);
#1110=(
NAMED_UNIT(*)
PLANE_ANGLE_UNIT()
SI_UNIT($,.RADIAN.)
);
#1111=(
LENGTH_UNIT()
NAMED_UNIT(*)
SI_UNIT($,.METRE.)
);
#1112=PRODUCT_DEFINITION_SHAPE('','',#1113);
#1113=PRODUCT_DEFINITION('','',#1115,#1114);
#1114=PRODUCT_DEFINITION_CONTEXT('',#1121,'design');
#1115=PRODUCT_DEFINITION_FORMATION_WITH_SPECIFIED_SOURCE('','',#1117,
 .NOT_KNOWN.);
#1116=PRODUCT_RELATED_PRODUCT_CATEGORY('','',(#1117));
#1117=PRODUCT('BatteryCap','BatteryCap','BatteryCap',(#1119));
#1118=PRODUCT_CATEGORY('','');
#1119=PRODUCT_CONTEXT('',#1121,'mechanical');
#1120=APPLICATION_PROTOCOL_DEFINITION('international standard',
'ap242_managed_model_based_3d_engineering',2020,#1121);
#1121=APPLICATION_CONTEXT('managed model based 3d engineering');
ENDSEC;
END-ISO-10303-21;
